<?xml version="1.0" encoding="UTF-8" standalone="no"?>
<svg
   xmlns:dc="http://purl.org/dc/elements/1.1/"
   xmlns:cc="http://creativecommons.org/ns#"
   xmlns:rdf="http://www.w3.org/1999/02/22-rdf-syntax-ns#"
   xmlns:svg="http://www.w3.org/2000/svg"
   xmlns="http://www.w3.org/2000/svg"
   viewBox="0 0 1000 750"
   height="750"
   width="1000"
   xml:space="preserve"
   version="1.1"
   id="svg3390"><metadata
     id="metadata3396"><rdf:RDF><cc:Work
         rdf:about=""><dc:format>image/svg+xml</dc:format><dc:type
           rdf:resource="http://purl.org/dc/dcmitype/StillImage" /><dc:title></dc:title></cc:Work></rdf:RDF></metadata><defs
     id="defs3394"><clipPath
       id="clipPath3584"
       clipPathUnits="userSpaceOnUse"><path
         id="path3586"
         d="m 4000.04,3715.35 c -230.36,-346.1 -697.67,-439.93 -1043.77,-209.57 -346.09,230.36 -439.92,697.67 -209.56,1043.77 230.36,346.1 697.67,439.92 1043.77,209.56 346.09,-230.36 439.92,-697.67 209.56,-1043.76" /></clipPath></defs><g
     transform="matrix(1.25,0,0,-1.25,0,750)"
     id="g3398"><g
       transform="scale(0.1,0.1)"
       id="g3400"><path
         id="path3404"
         style="fill:#333333;fill-opacity:1;fill-rule:nonzero;stroke:none"
         d="m 5721.58,602.68 -3830.45,0 c -33.8,0 -45.77,44.75 -16.5,61.633 L 3504.8,1604.15 c 51.28,1.96 55.13,3 59.05,3.02 L 7332.06,1623 c 0.04,0 0.08,0 0.11,0 22.75,0 31.19,-29.92 11.73,-41.79 L 5756.2,612.41 c -10.43,-6.359 -22.4,-9.73 -34.62,-9.73" /><path
         id="path3406"
         style="fill:#5e6061;fill-opacity:1;fill-rule:nonzero;stroke:none"
         d="m 7320.82,1765.83 -3849.9,0 0,2443.86 c 0,62.65 50.79,113.43 113.44,113.43 l 3623.03,0 c 62.65,0 113.43,-50.78 113.43,-113.43 l 0,-2443.86" /><path
         id="path3408"
         style="fill:#e9e8e7;fill-opacity:1;fill-rule:nonzero;stroke:none"
         d="m 7320.82,1765.83 -3849.91,0 -1610.41,-979.56 3849.9,0 1610.42,979.56" /><path
         id="path3410"
         style="fill:#5e6061;fill-opacity:1;fill-rule:nonzero;stroke:none"
         d="m 3537.8,1603.65 c -13.13,-7.99 -36.45,-14.52 -51.81,-14.52 l -136.26,0 c -15.37,0 -17.2,6.53 -4.07,14.52 l 119.57,72.74 c 13.13,7.98 36.45,14.52 51.82,14.52 l 136.28,0 c 15.36,0 17.19,-6.54 4.06,-14.52 l -119.59,-72.74" /><path
         id="path3412"
         style="fill:#5e6061;fill-opacity:1;fill-rule:nonzero;stroke:none"
         d="m 3798.8,1603.65 c -13.13,-7.99 -36.45,-14.52 -51.82,-14.52 l -136.24,0 c -15.37,0 -17.2,6.53 -4.07,14.52 l 119.58,72.74 c 13.13,7.98 36.45,14.52 51.82,14.52 l 136.26,0 c 15.37,0 17.2,-6.54 4.07,-14.52 l -119.6,-72.74" /><path
         id="path3414"
         style="fill:#5e6061;fill-opacity:1;fill-rule:nonzero;stroke:none"
         d="m 4059.81,1603.65 c -13.12,-7.99 -36.44,-14.52 -51.81,-14.52 l -136.23,0 c -15.37,0 -17.2,6.53 -4.07,14.52 l 119.58,72.74 c 13.13,7.98 36.45,14.52 51.82,14.52 l 136.23,0 c 15.36,0 17.2,-6.54 4.06,-14.52 l -119.58,-72.74" /><path
         id="path3416"
         style="fill:#5e6061;fill-opacity:1;fill-rule:nonzero;stroke:none"
         d="m 4320.83,1603.65 c -13.13,-7.99 -36.45,-14.52 -51.83,-14.52 l -136.24,0 c -15.37,0 -17.19,6.53 -4.07,14.52 l 119.58,72.74 c 13.14,7.98 36.46,14.52 51.83,14.52 l 136.25,0 c 15.36,0 17.19,-6.54 4.06,-14.52 l -119.58,-72.74" /><path
         id="path3418"
         style="fill:#5e6061;fill-opacity:1;fill-rule:nonzero;stroke:none"
         d="m 4581.84,1603.65 c -13.13,-7.99 -36.45,-14.52 -51.82,-14.52 l -136.29,0 c -15.36,0 -17.2,6.53 -4.06,14.52 l 119.59,72.74 c 13.12,7.98 36.44,14.52 51.81,14.52 l 136.28,0 c 15.36,0 17.2,-6.54 4.07,-14.52 l -119.58,-72.74" /><path
         id="path3420"
         style="fill:#5e6061;fill-opacity:1;fill-rule:nonzero;stroke:none"
         d="m 4842.84,1603.65 c -13.12,-7.99 -36.44,-14.52 -51.81,-14.52 l -136.26,0 c -15.38,0 -17.2,6.53 -4.08,14.52 l 119.58,72.74 c 13.13,7.98 36.45,14.52 51.82,14.52 l 136.28,0 c 15.37,0 17.21,-6.54 4.07,-14.52 l -119.6,-72.74" /><path
         id="path3422"
         style="fill:#5e6061;fill-opacity:1;fill-rule:nonzero;stroke:none"
         d="m 5103.88,1603.65 c -13.14,-7.99 -36.45,-14.52 -51.82,-14.52 l -136.27,0 c -15.37,0 -17.2,6.53 -4.07,14.52 l 119.59,72.74 c 13.12,7.98 36.44,14.52 51.82,14.52 l 136.25,0 c 15.38,0 17.21,-6.54 4.08,-14.52 l -119.58,-72.74" /><path
         id="path3424"
         style="fill:#5e6061;fill-opacity:1;fill-rule:nonzero;stroke:none"
         d="m 5364.84,1603.65 c -13.12,-7.99 -36.44,-14.52 -51.81,-14.52 l -136.25,0 c -15.37,0 -17.2,6.53 -4.07,14.52 l 119.58,72.74 c 13.13,7.98 36.45,14.52 51.82,14.52 l 136.26,0 c 15.36,0 17.2,-6.54 4.06,-14.52 l -119.59,-72.74" /><path
         id="path3426"
         style="fill:#5e6061;fill-opacity:1;fill-rule:nonzero;stroke:none"
         d="m 5625.87,1603.65 c -13.13,-7.99 -36.45,-14.52 -51.82,-14.52 l -136.24,0 c -15.37,0 -17.19,6.53 -4.07,14.52 l 119.58,72.74 c 13.13,7.98 36.45,14.52 51.82,14.52 l 136.26,0 c 15.36,0 17.19,-6.54 4.06,-14.52 l -119.59,-72.74" /><path
         id="path3428"
         style="fill:#5e6061;fill-opacity:1;fill-rule:nonzero;stroke:none"
         d="m 5886.88,1603.65 c -13.13,-7.99 -36.45,-14.52 -51.82,-14.52 l -136.26,0 c -15.36,0 -17.2,6.53 -4.06,14.52 l 119.59,72.74 c 13.12,7.98 36.44,14.52 51.81,14.52 l 136.25,0 c 15.37,0 17.2,-6.54 4.07,-14.52 l -119.58,-72.74" /><path
         id="path3430"
         style="fill:#5e6061;fill-opacity:1;fill-rule:nonzero;stroke:none"
         d="m 6147.88,1603.65 c -13.12,-7.99 -36.44,-14.52 -51.81,-14.52 l -136.27,0 c -15.37,0 -17.2,6.53 -4.07,14.52 l 119.58,72.74 c 13.13,7.98 36.45,14.52 51.82,14.52 l 136.28,0 c 15.36,0 17.2,-6.54 4.06,-14.52 l -119.59,-72.74" /><path
         id="path3432"
         style="fill:#5e6061;fill-opacity:1;fill-rule:nonzero;stroke:none"
         d="m 6408.9,1603.65 c -13.13,-7.99 -36.45,-14.52 -51.82,-14.52 l -136.28,0 c -15.36,0 -17.2,6.53 -4.06,14.52 l 119.59,72.74 c 13.12,7.98 36.44,14.52 51.82,14.52 l 136.25,0 c 15.38,0 17.2,-6.54 4.08,-14.52 l -119.58,-72.74" /><path
         id="path3434"
         style="fill:#5e6061;fill-opacity:1;fill-rule:nonzero;stroke:none"
         d="m 6669.89,1603.65 c -13.13,-7.99 -36.45,-14.52 -51.82,-14.52 l -136.23,0 c -15.36,0 -17.2,6.53 -4.07,14.52 l 119.57,72.74 c 13.13,7.98 36.45,14.52 51.82,14.52 l 136.24,0 c 15.37,0 17.2,-6.54 4.07,-14.52 l -119.58,-72.74" /><path
         id="path3436"
         style="fill:#5e6061;fill-opacity:1;fill-rule:nonzero;stroke:none"
         d="m 6923.68,1603.65 c -13.13,-7.99 -36.45,-14.52 -51.81,-14.52 l -136.27,0 c -15.37,0 -17.2,6.53 -4.08,14.52 l 119.58,72.74 c 13.14,7.98 36.46,14.52 51.83,14.52 l 136.25,0 c 15.37,0 17.21,-6.54 4.07,-14.52 l -119.57,-72.74" /><path
         id="path3438"
         style="fill:#5e6061;fill-opacity:1;fill-rule:nonzero;stroke:none"
         d="m 3310.42,1465.35 c -13.13,-7.99 -36.45,-14.52 -51.81,-14.52 l -136.27,0 c -15.37,0 -17.2,6.53 -4.07,14.52 l 119.61,72.76 c 13.13,7.98 36.45,14.52 51.82,14.52 l 136.26,0 c 15.37,0 17.2,-6.54 4.07,-14.52 l -119.61,-72.76" /><path
         id="path3440"
         style="fill:#5e6061;fill-opacity:1;fill-rule:nonzero;stroke:none"
         d="m 3571.44,1465.35 c -13.13,-7.99 -36.45,-14.52 -51.82,-14.52 l -136.25,0 c -15.37,0 -17.2,6.53 -4.07,14.52 l 119.6,72.76 c 13.13,7.98 36.45,14.52 51.82,14.52 l 136.25,0 c 15.36,0 17.2,-6.54 4.07,-14.52 l -119.6,-72.76" /><path
         id="path3442"
         style="fill:#5e6061;fill-opacity:1;fill-rule:nonzero;stroke:none"
         d="m 3832.44,1465.35 c -13.14,-7.99 -36.45,-14.52 -51.82,-14.52 l -136.24,0 c -15.37,0 -17.2,6.53 -4.07,14.52 l 119.61,72.76 c 13.13,7.98 36.45,14.52 51.81,14.52 l 136.24,0 c 15.37,0 17.21,-6.54 4.08,-14.52 l -119.61,-72.76" /><path
         id="path3444"
         style="fill:#5e6061;fill-opacity:1;fill-rule:nonzero;stroke:none"
         d="m 4093.45,1465.35 c -13.13,-7.99 -36.45,-14.52 -51.82,-14.52 l -136.24,0 c -15.37,0 -17.2,6.53 -4.07,14.52 l 119.61,72.76 c 13.13,7.98 36.45,14.52 51.82,14.52 l 136.23,0 c 15.38,0 17.21,-6.54 4.08,-14.52 l -119.61,-72.76" /><path
         id="path3446"
         style="fill:#5e6061;fill-opacity:1;fill-rule:nonzero;stroke:none"
         d="m 4354.44,1465.35 c -13.12,-7.99 -36.44,-14.52 -51.81,-14.52 l -136.26,0 c -15.37,0 -17.2,6.53 -4.08,14.52 l 119.62,72.76 c 13.13,7.98 36.45,14.52 51.82,14.52 l 136.26,0 c 15.36,0 17.2,-6.54 4.06,-14.52 l -119.61,-72.76" /><path
         id="path3448"
         style="fill:#5e6061;fill-opacity:1;fill-rule:nonzero;stroke:none"
         d="m 4615.49,1465.35 c -13.14,-7.99 -36.46,-14.52 -51.83,-14.52 l -136.28,0 c -15.36,0 -17.19,6.53 -4.06,14.52 l 119.61,72.76 c 13.13,7.98 36.45,14.52 51.82,14.52 l 136.27,0 c 15.37,0 17.19,-6.54 4.07,-14.52 l -119.6,-72.76" /><path
         id="path3450"
         style="fill:#5e6061;fill-opacity:1;fill-rule:nonzero;stroke:none"
         d="m 4876.52,1465.35 c -13.13,-7.99 -36.45,-14.52 -51.82,-14.52 l -136.29,0 c -15.37,0 -17.21,6.53 -4.07,14.52 l 119.59,72.76 c 13.13,7.98 36.45,14.52 51.81,14.52 l 136.31,0 c 15.37,0 17.2,-6.54 4.07,-14.52 l -119.6,-72.76" /><path
         id="path3452"
         style="fill:#5e6061;fill-opacity:1;fill-rule:nonzero;stroke:none"
         d="m 5137.49,1465.35 c -13.13,-7.99 -36.45,-14.52 -51.82,-14.52 l -136.28,0 c -15.37,0 -17.19,6.53 -4.07,14.52 l 119.61,72.76 c 13.14,7.98 36.46,14.52 51.82,14.52 l 136.27,0 c 15.37,0 17.2,-6.54 4.07,-14.52 l -119.6,-72.76" /><path
         id="path3454"
         style="fill:#5e6061;fill-opacity:1;fill-rule:nonzero;stroke:none"
         d="m 5398.51,1465.35 c -13.14,-7.99 -36.46,-14.52 -51.82,-14.52 l -136.25,0 c -15.37,0 -17.21,6.53 -4.07,14.52 l 119.61,72.76 c 13.13,7.98 36.44,14.52 51.81,14.52 l 136.25,0 c 15.37,0 17.2,-6.54 4.08,-14.52 l -119.61,-72.76" /><path
         id="path3456"
         style="fill:#5e6061;fill-opacity:1;fill-rule:nonzero;stroke:none"
         d="m 5659.49,1465.35 c -13.13,-7.99 -36.44,-14.52 -51.81,-14.52 l -136.26,0 c -15.38,0 -17.2,6.53 -4.08,14.51 l 119.64,72.77 c 13.14,7.98 36.45,14.52 51.82,14.52 l 136.25,0 c 15.37,0 17.2,-6.54 4.07,-14.52 l -119.63,-72.76" /><path
         id="path3458"
         style="fill:#5e6061;fill-opacity:1;fill-rule:nonzero;stroke:none"
         d="m 5920.5,1465.35 c -13.14,-7.99 -36.45,-14.52 -51.82,-14.52 l -136.27,0 c -15.37,0 -17.2,6.53 -4.07,14.52 l 119.62,72.76 c 13.13,7.98 36.45,14.52 51.82,14.52 l 136.28,0 c 15.37,0 17.19,-6.54 4.07,-14.52 l -119.63,-72.76" /><path
         id="path3460"
         style="fill:#5e6061;fill-opacity:1;fill-rule:nonzero;stroke:none"
         d="m 6181.52,1465.35 c -13.13,-7.99 -36.45,-14.52 -51.81,-14.52 l -136.3,0 c -15.37,0 -17.2,6.53 -4.06,14.52 l 119.62,72.76 c 13.13,7.98 36.45,14.52 51.82,14.52 l 136.28,0 c 15.37,0 17.2,-6.54 4.07,-14.52 l -119.62,-72.76" /><path
         id="path3462"
         style="fill:#5e6061;fill-opacity:1;fill-rule:nonzero;stroke:none"
         d="m 6442.5,1465.35 c -13.12,-7.99 -36.44,-14.52 -51.82,-14.52 l -136.22,0 c -15.37,0 -17.19,6.53 -4.07,14.52 l 119.61,72.76 c 13.14,7.98 36.46,14.52 51.82,14.52 l 136.24,0 c 15.37,0 17.2,-6.54 4.07,-14.52 l -119.63,-72.76" /><path
         id="path3464"
         style="fill:#5e6061;fill-opacity:1;fill-rule:nonzero;stroke:none"
         d="m 6696.29,1465.35 c -13.14,-7.99 -36.46,-14.52 -51.83,-14.52 l -136.25,0 c -15.37,0 -17.2,6.53 -4.07,14.52 l 119.62,72.76 c 13.13,7.98 36.45,14.52 51.82,14.52 l 136.26,0 c 15.37,0 17.19,-6.54 4.06,-14.52 l -119.61,-72.76" /><path
         id="path3466"
         style="fill:#5e6061;fill-opacity:1;fill-rule:nonzero;stroke:none"
         d="m 3083.07,1327.05 c -13.14,-7.99 -36.45,-14.52 -51.82,-14.52 l -136.27,0 c -15.37,0 -17.2,6.53 -4.07,14.52 l 119.63,72.76 c 13.13,7.99 36.45,14.53 51.82,14.53 l 136.27,0 c 15.37,0 17.2,-6.54 4.08,-14.53 l -119.64,-72.76" /><path
         id="path3468"
         style="fill:#5e6061;fill-opacity:1;fill-rule:nonzero;stroke:none"
         d="m 3344.08,1327.05 c -13.14,-7.99 -36.45,-14.52 -51.82,-14.52 l -136.25,0 c -15.38,0 -17.21,6.53 -4.08,14.52 l 119.64,72.76 c 13.14,7.99 36.45,14.53 51.82,14.53 l 136.25,0 c 15.36,0 17.2,-6.54 4.07,-14.53 l -119.63,-72.76" /><path
         id="path3470"
         style="fill:#5e6061;fill-opacity:1;fill-rule:nonzero;stroke:none"
         d="m 3605.07,1327.05 c -13.13,-7.99 -36.45,-14.52 -51.82,-14.52 l -136.23,0 c -15.37,0 -17.2,6.53 -4.07,14.52 l 119.63,72.76 c 13.14,7.99 36.45,14.53 51.82,14.53 l 136.24,0 c 15.37,0 17.2,-6.54 4.07,-14.53 l -119.64,-72.76" /><path
         id="path3472"
         style="fill:#5e6061;fill-opacity:1;fill-rule:nonzero;stroke:none"
         d="m 3866.09,1327.05 c -13.14,-7.99 -36.45,-14.52 -51.82,-14.52 l -136.25,0 c -15.37,0 -17.2,6.53 -4.07,14.52 l 119.63,72.76 c 13.14,7.99 36.45,14.53 51.83,14.53 l 136.25,0 c 15.37,0 17.2,-6.54 4.07,-14.53 l -119.64,-72.76" /><path
         id="path3474"
         style="fill:#5e6061;fill-opacity:1;fill-rule:nonzero;stroke:none"
         d="m 4127.09,1327.05 c -13.13,-7.99 -36.46,-14.52 -51.83,-14.52 l -136.27,0 c -15.36,0 -17.19,6.53 -4.06,14.52 l 119.65,72.77 c 13.13,7.98 36.46,14.52 51.83,14.52 l 136.25,0 c 15.37,0 17.19,-6.54 4.07,-14.53 l -119.64,-72.76" /><path
         id="path3476"
         style="fill:#5e6061;fill-opacity:1;fill-rule:nonzero;stroke:none"
         d="m 4388.12,1327.05 c -13.13,-7.99 -36.45,-14.52 -51.82,-14.52 l -136.28,0 c -15.37,0 -17.2,6.53 -4.07,14.52 l 119.63,72.76 c 13.13,7.99 36.45,14.53 51.82,14.53 l 136.28,0 c 15.37,0 17.2,-6.54 4.07,-14.53 l -119.63,-72.76" /><path
         id="path3478"
         style="fill:#5e6061;fill-opacity:1;fill-rule:nonzero;stroke:none"
         d="m 4649.13,1327.05 c -13.12,-7.99 -36.44,-14.52 -51.82,-14.52 l -136.26,0 c -15.36,0 -17.19,6.53 -4.06,14.52 l 119.61,72.76 c 13.14,7.99 36.46,14.53 51.83,14.53 l 136.27,0 c 15.37,0 17.2,-6.54 4.07,-14.53 l -119.64,-72.76" /><path
         id="path3480"
         style="fill:#5e6061;fill-opacity:1;fill-rule:nonzero;stroke:none"
         d="m 4910.12,1327.05 c -13.14,-7.99 -36.46,-14.52 -51.83,-14.52 l -136.26,0 c -15.37,0 -17.21,6.53 -4.07,14.52 l 119.65,72.76 c 13.13,7.99 36.45,14.53 51.82,14.53 l 136.23,0 c 15.38,0 17.21,-6.54 4.08,-14.53 l -119.62,-72.76" /><path
         id="path3482"
         style="fill:#5e6061;fill-opacity:1;fill-rule:nonzero;stroke:none"
         d="m 5171.13,1327.05 c -13.12,-7.99 -36.44,-14.52 -51.81,-14.52 l -136.24,0 c -15.37,0 -17.2,6.53 -4.07,14.52 l 119.62,72.76 c 13.14,7.99 36.46,14.53 51.83,14.53 l 136.23,0 c 15.37,0 17.21,-6.54 4.07,-14.53 l -119.63,-72.76" /><path
         id="path3484"
         style="fill:#5e6061;fill-opacity:1;fill-rule:nonzero;stroke:none"
         d="m 5432.14,1327.05 c -13.14,-7.99 -36.46,-14.52 -51.83,-14.52 l -136.25,0 c -15.36,0 -17.19,6.53 -4.06,14.52 l 119.62,72.76 c 13.13,7.99 36.45,14.53 51.83,14.53 l 136.26,0 c 15.37,0 17.2,-6.54 4.07,-14.53 l -119.64,-72.76" /><path
         id="path3486"
         style="fill:#5e6061;fill-opacity:1;fill-rule:nonzero;stroke:none"
         d="m 5693.15,1327.05 c -13.13,-7.99 -36.45,-14.52 -51.82,-14.52 l -136.28,0 c -15.37,0 -17.21,6.53 -4.07,14.52 l 119.65,72.76 c 13.13,7.99 36.45,14.53 51.82,14.53 l 136.27,0 c 15.37,0 17.21,-6.54 4.07,-14.53 l -119.64,-72.76" /><path
         id="path3488"
         style="fill:#5e6061;fill-opacity:1;fill-rule:nonzero;stroke:none"
         d="m 5954.16,1327.05 c -13.12,-7.99 -36.44,-14.52 -51.82,-14.52 l -136.26,0 c -15.37,0 -17.2,6.53 -4.07,14.52 l 119.63,72.76 c 13.13,7.99 36.45,14.53 51.82,14.53 l 136.28,0 c 15.37,0 17.2,-6.54 4.07,-14.53 l -119.65,-72.76" /><path
         id="path3490"
         style="fill:#5e6061;fill-opacity:1;fill-rule:nonzero;stroke:none"
         d="m 6215.16,1327.05 c -13.14,-7.99 -36.46,-14.52 -51.83,-14.52 l -136.23,0 c -15.37,0 -17.21,6.53 -4.07,14.52 l 119.64,72.76 c 13.13,7.99 36.45,14.53 51.82,14.53 l 136.23,0 c 15.36,0 17.2,-6.54 4.07,-14.53 l -119.63,-72.76" /><path
         id="path3492"
         style="fill:#5e6061;fill-opacity:1;fill-rule:nonzero;stroke:none"
         d="m 6468.94,1327.05 c -13.14,-7.99 -36.45,-14.52 -51.82,-14.52 l -136.27,0 c -15.37,0 -17.2,6.53 -4.07,14.52 l 119.65,72.76 c 13.13,7.99 36.44,14.53 51.81,14.53 l 136.26,0 c 15.37,0 17.2,-6.54 4.07,-14.53 l -119.63,-72.76" /><path
         id="path3494"
         style="fill:#5e6061;fill-opacity:1;fill-rule:nonzero;stroke:none"
         d="m 2874.69,1200.29 c -13.13,-7.99 -36.45,-14.52 -51.82,-14.52 l -136.27,0 c -15.37,0 -17.2,6.53 -4.07,14.52 l 119.62,72.76 c 13.13,7.98 36.45,14.52 51.82,14.52 l 136.26,0 c 15.37,0 17.2,-6.54 4.07,-14.52 l -119.61,-72.76" /><path
         id="path3496"
         style="fill:#5e6061;fill-opacity:1;fill-rule:nonzero;stroke:none"
         d="m 3135.7,1200.29 c -13.14,-7.99 -36.45,-14.52 -51.82,-14.52 l -136.25,0 c -15.37,0 -17.21,6.53 -4.08,14.52 l 119.62,72.76 c 13.13,7.98 36.45,14.52 51.82,14.52 l 136.25,0 c 15.37,0 17.2,-6.54 4.06,-14.52 l -119.6,-72.76" /><path
         id="path3498"
         style="fill:#5e6061;fill-opacity:1;fill-rule:nonzero;stroke:none"
         d="m 5745.75,1200.29 c -13.12,-7.99 -36.44,-14.52 -51.81,-14.52 l -2485.29,0 c -15.37,0 -17.2,6.53 -4.07,14.52 l 119.6,72.76 c 13.13,7.98 36.45,14.52 51.82,14.52 l 2485.3,0 c 15.37,0 17.21,-6.54 4.07,-14.52 l -119.62,-72.76" /><path
         id="path3500"
         style="fill:#5e6061;fill-opacity:1;fill-rule:nonzero;stroke:none"
         d="m 6006.78,1200.29 c -13.13,-7.99 -36.45,-14.52 -51.82,-14.52 l -136.22,0 c -15.37,0 -17.2,6.53 -4.07,14.52 l 119.59,72.76 c 13.13,7.98 36.45,14.52 51.81,14.52 l 136.25,0 c 15.38,0 17.21,-6.54 4.08,-14.52 l -119.62,-72.76" /><path
         id="path3502"
         style="fill:#5e6061;fill-opacity:1;fill-rule:nonzero;stroke:none"
         d="m 6260.57,1200.29 c -13.14,-7.99 -36.46,-14.52 -51.83,-14.52 l -136.25,0 c -15.37,0 -17.21,6.53 -4.07,14.52 l 119.6,72.76 c 13.13,7.98 36.44,14.52 51.81,14.52 l 136.26,0 c 15.38,0 17.2,-6.54 4.08,-14.52 l -119.6,-72.76" /><path
         id="path3504"
         style="fill:#5e6061;fill-opacity:1;fill-rule:nonzero;stroke:none"
         d="m 4378.57,844.949 c -13.13,-7.988 -36.45,-14.519 -51.82,-14.519 l -919.29,0 c -15.37,0 -17.2,6.531 -4.07,14.519 l 489.07,297.491 c 13.13,7.99 36.45,14.52 51.82,14.52 l 919.29,0 c 15.38,0 17.21,-6.53 4.08,-14.52 L 4378.57,844.949" /><path
         id="path3506"
         style="fill:#ccccc9;fill-opacity:1;fill-rule:nonzero;stroke:none"
         d="m 5710.4,786.27 -3849.9,0 c 0,-62.559 50.72,-113.278 113.28,-113.278 l 3704.87,0 c 20.76,0 41.14,5.707 58.87,16.496 l 1528.89,929.942 c 33.79,20.56 54.41,57.24 54.41,96.79 l 0,49.61 L 5710.4,786.27" /><path
         id="path3508"
         style="fill:#f5f6f5;fill-opacity:1;fill-rule:nonzero;stroke:none"
         d="m 3636.93,1938.37 3517.86,0 0,2197.57 -3517.86,0 0,-2197.57 z" /><path
         id="path3510"
         style="fill:#baca53;fill-opacity:1;fill-rule:nonzero;stroke:none"
         d="m 5455.68,2442.24 c -310.83,0 -562.82,251.99 -562.82,562.83 l -204.84,0 c 0,-423.98 343.69,-767.68 767.66,-767.68 423.97,0 767.68,343.7 767.68,767.68 l -204.84,0 c 0,-310.84 -252,-562.83 -562.84,-562.83" /><path
         id="path3512"
         style="fill:#d7721b;fill-opacity:1;fill-rule:nonzero;stroke:none"
         d="m 5455.68,3772.74 c -45.47,0 -90.01,-3.98 -133.32,-11.56 l 35.59,-201.76 c 31.74,5.56 64.41,8.48 97.73,8.48 173.1,0 327.88,-78.15 431.15,-201.07 l 156.91,131.68 c -140.83,167.65 -351.99,274.23 -588.06,274.23" /><path
         id="path3514"
         style="fill:#fbc545;fill-opacity:1;fill-rule:nonzero;stroke:none"
         d="m 4688.02,3005.07 204.84,0 c 0,277.5 200.84,508.07 465.09,554.35 l -35.59,201.76 c -360.42,-63.11 -634.34,-377.61 -634.34,-756.11" /><path
         id="path3516"
         style="fill:#bb4620;fill-opacity:1;fill-rule:nonzero;stroke:none"
         d="m 6223.36,3005.07 c 0,187.89 -67.55,360 -179.62,493.44 l -156.91,-131.68 c 82.16,-97.83 131.69,-224 131.69,-361.76 l 204.84,0" /><path
         id="path3518"
         style="fill:#baca53;fill-opacity:1;fill-rule:nonzero;stroke:none"
         d="m 3797.68,3822.41 161.922,0 0,161.93 -161.922,0 0,-161.93 z" /><path
         id="path3520"
         style="fill:#fbc545;fill-opacity:1;fill-rule:nonzero;stroke:none"
         d="m 3797.68,3660.48 161.922,0 0,161.93 -161.922,0 0,-161.93 z" /><path
         id="path3522"
         style="fill:#d7721b;fill-opacity:1;fill-rule:nonzero;stroke:none"
         d="m 3797.68,3499.79 161.922,0 0,161.93 -161.922,0 0,-161.93 z" /><path
         id="path3524"
         style="fill:#bb4620;fill-opacity:1;fill-rule:nonzero;stroke:none"
         d="m 3797.68,3337.86 161.922,0 0,161.93 -161.922,0 0,-161.93 z" /><path
         id="path3526"
         style="fill:#e3e2e0;fill-opacity:1;fill-rule:nonzero;stroke:none"
         d="m 4019.81,3856.41 301.031,0 0,93.9297 -301.031,0 0,-93.9297 z" /><path
         id="path3528"
         style="fill:#e3e2e0;fill-opacity:1;fill-rule:nonzero;stroke:none"
         d="m 3834.63,2524.39 301.012,0 0,93.918 -301.012,0 0,-93.918 z" /><path
         id="path3530"
         style="fill:#e3e2e0;fill-opacity:1;fill-rule:nonzero;stroke:none"
         d="m 6374.52,2075.97 301.012,0 0,93.9219 -301.012,0 0,-93.9219 z" /><path
         id="path3532"
         style="fill:#e3e2e0;fill-opacity:1;fill-rule:nonzero;stroke:none"
         d="m 6615.33,3176.27 301.02,0 0,93.9102 -301.02,0 0,-93.9102 z" /><path
         id="path3534"
         style="fill:#e3e2e0;fill-opacity:1;fill-rule:nonzero;stroke:none"
         d="m 6399.42,3856.41 301.027,0 0,93.9297 -301.027,0 0,-93.9297 z" /><path
         id="path3536"
         style="fill:#e3e2e0;fill-opacity:1;fill-rule:nonzero;stroke:none"
         d="m 4019.81,3694.48 301.031,0 0,93.9297 -301.031,0 0,-93.9297 z" /><path
         id="path3538"
         style="fill:#e3e2e0;fill-opacity:1;fill-rule:nonzero;stroke:none"
         d="m 4019.81,3533.8 301.031,0 0,93.918 -301.031,0 0,-93.918 z" /><path
         id="path3540"
         style="fill:#e3e2e0;fill-opacity:1;fill-rule:nonzero;stroke:none"
         d="m 4019.81,3371.86 301.031,0 0,93.9297 -301.031,0 0,-93.9297 z" /><path
         id="path3542"
         style="fill:#535459;fill-opacity:1;fill-rule:nonzero;stroke:none"
         d="m 4629.69,2563.95 -431.75,0 c -4.09,0 -7.39,3.32 -7.39,7.4 0,4.09 3.3,7.39 7.39,7.39 l 426.44,0 168.53,501.52 c 1.3,3.87 5.49,5.95 9.36,4.65 3.87,-1.3 5.96,-5.49 4.66,-9.36 l -170.24,-506.56 c -1.02,-3 -3.83,-5.04 -7,-5.04" /><path
         id="path3544"
         style="fill:#535459;fill-opacity:1;fill-rule:nonzero;stroke:none"
         d="m 5675.99,3620.32 c -1.03,0 -2.05,0.22 -3.05,0.66 -3.71,1.69 -5.36,6.07 -3.68,9.78 l 124.56,275.66 c 1.19,2.65 3.83,4.35 6.74,4.35 l 530.69,0 c 4.09,0 7.4,-3.31 7.4,-7.4 0,-4.08 -3.31,-7.39 -7.4,-7.39 l -525.92,0 -122.61,-271.3 c -1.23,-2.74 -3.91,-4.36 -6.73,-4.36" /><path
         id="path3546"
         style="fill:#535459;fill-opacity:1;fill-rule:nonzero;stroke:none"
         d="m 6549.93,3215.83 -458.73,0 c -4.09,0 -7.39,3.31 -7.39,7.39 0,4.08 3.3,7.39 7.39,7.39 l 458.73,0 c 4.09,0 7.4,-3.31 7.4,-7.39 0,-4.08 -3.31,-7.39 -7.4,-7.39" /><path
         id="path3548"
         style="fill:#535459;fill-opacity:1;fill-rule:nonzero;stroke:none"
         d="m 6318.8,2115.55 -588.83,0 c -1.93,0 -3.8,0.75 -5.18,2.11 l -215.91,211.74 c -2.91,2.87 -2.95,7.55 -0.09,10.46 2.85,2.92 7.53,2.96 10.45,0.1 l 213.76,-209.63 585.8,0 c 4.09,0 7.39,-3.31 7.39,-7.39 0,-4.09 -3.3,-7.39 -7.39,-7.39" /><path
         id="path3550"
         style="fill:#535459;fill-opacity:1;fill-rule:nonzero;stroke:none"
         d="m 4799.91,3103.72 c -14.23,0 -25.81,-11.58 -25.81,-25.82 0,-14.24 11.58,-25.82 25.81,-25.82 14.25,0 25.82,11.58 25.82,25.82 0,14.24 -11.57,25.82 -25.82,25.82 z m 0,-66.43 c -22.38,0 -40.59,18.21 -40.59,40.61 0,22.39 18.21,40.61 40.59,40.61 22.4,0 40.62,-18.22 40.62,-40.61 0,-22.4 -18.22,-40.61 -40.62,-40.61" /><path
         id="path3552"
         style="fill:#535459;fill-opacity:1;fill-rule:nonzero;stroke:none"
         d="m 5676,3653.54 c -14.25,0 -25.83,-11.58 -25.83,-25.82 0,-14.24 11.58,-25.83 25.83,-25.83 14.23,0 25.82,11.59 25.82,25.83 0,14.24 -11.59,25.82 -25.82,25.82 z m 0,-66.43 c -22.4,0 -40.61,18.21 -40.61,40.61 0,22.4 18.21,40.61 40.61,40.61 22.38,0 40.61,-18.21 40.61,-40.61 0,-22.4 -18.23,-40.61 -40.61,-40.61" /><path
         id="path3554"
         style="fill:#535459;fill-opacity:1;fill-rule:nonzero;stroke:none"
         d="m 6091.2,3249.05 c -14.24,0 -25.83,-11.59 -25.83,-25.83 0,-14.23 11.59,-25.82 25.83,-25.82 14.24,0 25.81,11.59 25.81,25.82 0,14.24 -11.57,25.83 -25.81,25.83 z m 0,-66.43 c -22.4,0 -40.61,18.21 -40.61,40.6 0,22.4 18.21,40.62 40.61,40.62 22.39,0 40.61,-18.22 40.61,-40.62 0,-22.39 -18.22,-40.6 -40.61,-40.6" /><path
         id="path3556"
         style="fill:#535459;fill-opacity:1;fill-rule:nonzero;stroke:none"
         d="m 5514.05,2360.5 c -14.24,0 -25.81,-11.58 -25.81,-25.82 0,-14.23 11.57,-25.81 25.81,-25.81 14.24,0 25.83,11.58 25.83,25.81 0,14.24 -11.59,25.82 -25.83,25.82 z m 0,-66.43 c -22.38,0 -40.6,18.21 -40.6,40.61 0,22.39 18.22,40.61 40.6,40.61 22.41,0 40.62,-18.22 40.62,-40.61 0,-22.4 -18.21,-40.61 -40.62,-40.61" /><path
         id="path3558"
         style="fill:#e3e2e0;fill-opacity:1;fill-rule:nonzero;stroke:none"
         d="m 5932.49,3005.93 c 0,-263.33 -213.47,-476.83 -476.81,-476.83 -263.33,0 -476.79,213.5 -476.79,476.83 0,263.34 213.46,476.81 476.79,476.81 263.34,0 476.81,-213.47 476.81,-476.81" /><path
         id="path3560"
         style="fill:#595a5c;fill-opacity:1;fill-rule:nonzero;stroke:none"
         d="m 3470.92,3265.35 0,39.36 c 56.43,6.68 112.05,19.07 166.01,37.02 l 0,-47.02 c -54.17,-15.32 -109.81,-25.17 -166.01,-29.36" /><path
         id="path3562"
         style="fill:#e9e8e7;fill-opacity:1;fill-rule:nonzero;stroke:none"
         d="m 3636.93,3294.71 0,47.02 c 55.75,18.53 109.67,42.98 160.75,73.14 l 0,-56.1 c -51.39,-26.95 -105.31,-48.38 -160.75,-64.06 m 322.67,175.3 0,29.78 -43.33,0 43.33,0 0,40 c 21.07,20.88 41.17,43.05 60.21,66.5 l 0,-72.49 4.79,0 c -20.65,-22.63 -42.36,-43.9 -65,-63.79 m 139.11,157.71 -62.06,0 c 10.56,13.91 20.73,28.2 30.54,42.93 5.24,7.89 10.35,15.84 15.29,23.83 l 57.22,0 c -11.19,-20.29 -23.32,-40.29 -36.4,-59.94 -1.52,-2.28 -3.05,-4.55 -4.59,-6.82" /><path
         id="path3564"
         style="fill:#cc6e1c;fill-opacity:1;fill-rule:nonzero;stroke:none"
         d="m 3959.6,3499.79 -43.33,0 c 14.85,12.76 29.3,26.09 43.33,40 l 0,-40" /><path
         id="path3566"
         style="fill:#b0421f;fill-opacity:1;fill-rule:nonzero;stroke:none"
         d="m 3797.68,3358.77 0,56.1 c 41.61,24.56 81.32,52.9 118.59,84.92 l 43.33,0 0,-29.78 c -49.91,-43.86 -104.33,-81.03 -161.92,-111.24" /><path
         id="path3568"
         style="fill:#e9e8e7;fill-opacity:1;fill-rule:nonzero;stroke:none"
         d="m 4184.12,3788.41 -51.48,0 c 10.18,22.4 19.3,45.09 27.35,68 l 47.84,0 c -6.87,-22.88 -14.77,-45.56 -23.71,-68" /><path
         id="path3570"
         style="fill:#595a5c;fill-opacity:1;fill-rule:nonzero;stroke:none"
         d="m 4241.86,4135.94 -34.96,0 c -0.32,63.13 -7.79,125.93 -22.18,187.18 l 26.55,0 c 17.21,-60.97 27.5,-123.81 30.59,-187.18" /><path
         id="path3572"
         style="fill:#e9e8e7;fill-opacity:1;fill-rule:nonzero;stroke:none"
         d="m 4230.17,3950.34 -43.26,0 c 13.73,61.36 20.31,123.62 19.99,185.6 l 34.96,0 c 3.02,-61.74 -0.8,-124.01 -11.69,-185.6" /><path
         id="path3574"
         style="fill:#d7d6d4;fill-opacity:1;fill-rule:nonzero;stroke:none"
         d="m 4207.83,3856.41 -47.84,0 c 10.9,30.97 19.85,62.31 26.92,93.93 l 43.26,0 c -5.58,-31.55 -13.02,-62.9 -22.34,-93.93" /><path
         id="path3576"
         style="fill:#d7d6d4;fill-opacity:1;fill-rule:nonzero;stroke:none"
         d="m 4139.7,3694.48 -57.22,0 c 18.92,30.59 35.63,61.97 50.16,93.93 l 51.48,0 c -12.7,-31.87 -27.49,-63.24 -44.42,-93.93" /><path
         id="path3578"
         style="fill:#d7d6d4;fill-opacity:1;fill-rule:nonzero;stroke:none"
         d="m 4024.6,3533.8 -4.79,0 0,72.49 c 5.7,7.01 11.34,14.2 16.84,21.43 l 62.06,0 c -22.77,-33.5 -47.57,-64.83 -74.11,-93.92" /><g
         id="g3580"><g
           clip-path="url(#clipPath3584)"
           id="g3582"><path
             id="path3588"
             style="fill:#5e6061;fill-opacity:1;fill-rule:nonzero;stroke:none"
             d="m 7500.9,1646.21 -4210.05,0 0,2672.49 c 0,68.5 55.54,124.04 124.04,124.04 l 3961.97,0 c 68.5,0 124.04,-55.54 124.04,-124.04 l 0,-2672.49" /><path
             id="path3590"
             style="fill:#f5f6f5;fill-opacity:1;fill-rule:nonzero;stroke:none"
             d="m 3472.39,1834.89 3846.96,0 0,2403.15 -3846.96,0 0,-2403.15 z" /><path
             id="path3592"
             style="fill:#baca53;fill-opacity:1;fill-rule:nonzero;stroke:none"
             d="m 3648.17,3895.18 177.066,0 0,177.082 -177.066,0 0,-177.082 z" /><path
             id="path3594"
             style="fill:#fbc545;fill-opacity:1;fill-rule:nonzero;stroke:none"
             d="m 3648.17,3718.1 177.066,0 0,177.078 -177.066,0 0,-177.078 z" /><path
             id="path3596"
             style="fill:#d7721b;fill-opacity:1;fill-rule:nonzero;stroke:none"
             d="m 3648.17,3542.39 177.066,0 0,177.078 -177.066,0 0,-177.078 z" /><path
             id="path3598"
             style="fill:#bb4620;fill-opacity:1;fill-rule:nonzero;stroke:none"
             d="m 3648.17,3365.31 177.066,0 0,177.082 -177.066,0 0,-177.082 z" /><path
             id="path3600"
             style="fill:#e3e2e0;fill-opacity:1;fill-rule:nonzero;stroke:none"
             d="m 3891.09,3932.36 329.18,0 0,102.723 -329.18,0 0,-102.723 z" /><path
             id="path3602"
             style="fill:#e3e2e0;fill-opacity:1;fill-rule:nonzero;stroke:none"
             d="m 3891.09,3755.29 329.18,0 0,102.711 -329.18,0 0,-102.711 z" /><path
             id="path3604"
             style="fill:#e3e2e0;fill-opacity:1;fill-rule:nonzero;stroke:none"
             d="m 3891.09,3579.57 329.18,0 0,102.711 -329.18,0 0,-102.711 z" /><path
             id="path3606"
             style="fill:#e3e2e0;fill-opacity:1;fill-rule:nonzero;stroke:none"
             d="m 3891.09,3402.49 329.18,0 0,102.711 -329.18,0 0,-102.711 z" /></g></g><path
         id="path3608"
         style="fill:#4d4d4d;fill-opacity:1;fill-rule:nonzero;stroke:none"
         d="m 1752.02,1156.04 c -379.01,0 -684.68,46.64 -684.68,104.83 0,25.19 57.25,48.45 152.93,66.86 l -9.61,-79.89 c 0,0 105.32,-25.59 178.94,-25.59 59.18,0 97.89,16.55 44.93,76.23 -30.48,34.34 -59.72,45.6 -84.97,45.6 -48.15,0 -81.79,-40.94 -81.79,-40.94 l 8.85,34.2 c 125.13,18.96 296.24,30.84 484.95,31.23 3.18,0.01 6.38,0.01 9.55,0.01 107.61,0 209.33,-3.76 299.8,-10.47 l -7.23,-67.3 c 0,0 108.85,-31.09 188.37,-31.08 54.91,0 95.84,14.81 77.28,64.92 79.67,-17.13 126.47,-38.13 126.47,-60.9 0,-58.69 -310.82,-106.91 -694.24,-107.7 -3.18,-0.01 -6.37,-0.01 -9.55,-0.01 m 380.33,195.66 0.25,1.21 c 0.56,-0.06 1.15,-0.11 1.7,-0.16 -1.27,-0.67 -1.95,-1.05 -1.95,-1.05" /><path
         id="path3610"
         style="fill:#fbd8b6;fill-opacity:1;fill-rule:nonzero;stroke:none"
         d="m 2856.91,2823.65 c 0,0 97.43,85.51 20.36,143.41 -77.07,57.9 -111.38,-68.02 -111.38,-68.02 l 91.02,-75.39" /><path
         id="path3612"
         style="fill:#f8f8f8;fill-opacity:1;fill-rule:nonzero;stroke:none"
         d="m 2749.55,2883.98 15.68,26.56 101.46,-84.25 -17.78,-26.91 -99.36,84.6" /><path
         id="path3614"
         style="fill:#2e2d2d;fill-opacity:1;fill-rule:nonzero;stroke:none"
         d="m 2127.98,2726.17 c 0,0 350.96,-452.7 734.5,76.51 l -111.95,100.02 c 0,0 -258.39,-483.1 -639.75,52.37 l 17.2,-228.9" /><path
         id="path3616"
         style="fill:#83b591;fill-opacity:1;fill-rule:nonzero;stroke:none"
         d="m 2853.54,2979.86 c -5.27,1.66 -10.29,2.42 -15.06,2.42 -3.64,0 -7.13,-0.44 -10.49,-1.26 l 0.3,0.45 c 3.26,0.77 6.65,1.19 10.19,1.19 4.83,0 9.92,-0.78 15.26,-2.49 l -0.2,-0.31" /><path
         id="path3618"
         style="fill:#f0cdaa;fill-opacity:1;fill-rule:nonzero;stroke:none"
         d="m 2792.39,2887.98 -16.95,14.08 52.55,78.96 c 3.36,0.82 6.85,1.26 10.49,1.26 4.77,0 9.79,-0.76 15.06,-2.42 l -61.15,-91.88" /><path
         id="path3620"
         style="fill:#ecebeb;fill-opacity:1;fill-rule:nonzero;stroke:none"
         d="m 2782.92,2873.76 -16.5,14.75 9.02,13.55 16.95,-14.08 -9.47,-14.22" /><path
         id="path3622"
         style="fill:#2c2a2a;fill-opacity:1;fill-rule:nonzero;stroke:none"
         d="m 2544.78,2555.51 221.64,333 16.5,-14.75 -205.54,-308.82 c -10.99,-3.75 -21.85,-6.87 -32.6,-9.43" /><path
         id="path3624"
         style="fill:#5e6061;fill-opacity:1;fill-rule:nonzero;stroke:none"
         d="m 2799.62,2757.23 c 4.02,6.44 2.06,14.92 -4.35,18.94 -6.47,4 -14.93,2.04 -18.95,-4.38 -4.02,-6.42 -2.06,-14.92 4.35,-18.94 6.45,-4.01 14.93,-2.06 18.95,4.38" /><path
         id="path3626"
         style="fill:#5e6061;fill-opacity:1;fill-rule:nonzero;stroke:none"
         d="m 2831,2791.89 c 4.02,6.45 2.06,14.92 -4.37,18.95 -6.42,4.01 -14.91,2.06 -18.92,-4.38 -4.01,-6.44 -2.07,-14.92 4.37,-18.94 6.42,-4.01 14.91,-2.07 18.92,4.37" /><path
         id="path3628"
         style="fill:#fbd8b6;fill-opacity:1;fill-rule:nonzero;stroke:none"
         d="m 1012.13,2756.07 c 0,0 -252.97,924.91 329.75,1090.22 742.82,210.75 770.28,-920.58 770.28,-920.58 L 1012.13,2756.07" /><path
         id="path3630"
         style="fill:#504133;fill-opacity:1;fill-rule:nonzero;stroke:none"
         d="m 1457.63,3321.03 c 11.33,-40.76 4.71,-78.2 -14.8,-83.62 -19.5,-5.43 -44.5,23.22 -55.83,63.98 -11.34,40.76 -4.71,78.19 14.8,83.62 19.5,5.42 44.5,-23.22 55.83,-63.98" /><path
         id="path3632"
         style="fill:#504133;fill-opacity:1;fill-rule:nonzero;stroke:none"
         d="m 1936.93,3454.28 c 11.34,-40.75 4.71,-78.2 -14.8,-83.62 -19.5,-5.42 -44.5,23.23 -55.83,63.99 -11.33,40.75 -4.71,78.19 14.8,83.62 19.5,5.42 44.5,-23.23 55.83,-63.99" /><path
         id="path3634"
         style="fill:#ec6180;fill-opacity:1;fill-rule:nonzero;stroke:none"
         d="m 1546.11,3132.5 c 0,0 192.45,68.93 323.51,69.15 0,0 62.45,-165.51 -125.16,-211.3 -185.7,-45.32 -198.35,142.15 -198.35,142.15" /><path
         id="path3636"
         style="fill:#2e2d2d;fill-opacity:1;fill-rule:nonzero;stroke:none"
         d="m 2204.62,2235.79 6.67,-503.67 -78.94,-380.42 c 0,0 145.15,81.13 192.55,-16.71 66.78,-137.84 -261.21,-44.18 -261.21,-44.18 l 46.4,431.88 -33.61,378.52 c 0,0 -286.05,-106.19 -717.87,-119.81 l 2.78,-316.32 -93.62,-361.94 c 0,0 78.18,95.15 166.76,-4.66 118.85,-133.93 -223.87,-50.64 -223.87,-50.64 l 49.54,411.9 -50.83,371.37 c 0,0 373.07,172.3 995.25,204.68" /><path
         id="path3638"
         style="fill:#2e2d2d;fill-opacity:1;fill-rule:nonzero;stroke:none"
         d="m 1344.69,2835.65 420.11,-389.9 259.45,503.55 98.58,15.47 81.79,-728.98 c 0,0 -95.63,-56.34 -289.63,-104.88 -80.89,-21.74 -206.35,-44.34 -206.35,-44.34 -128.33,-20.64 -315.12,-42.95 -499.27,-55.46 l -228.436,737.98 363.756,66.56" /><path
         id="path3640"
         style="fill:#f8f8f8;fill-opacity:1;fill-rule:nonzero;stroke:none"
         d="m 2024.25,2949.3 -259.45,-503.55 -420.11,389.9 679.56,113.65" /><path
         id="path3642"
         style="fill:#5e6061;fill-opacity:1;fill-rule:nonzero;stroke:none"
         d="m 2024.25,2949.3 36.04,-191.31 -104.8,-39.88 39.17,-143.69 -229.86,-128.67 259.45,503.55" /><path
         id="path3644"
         style="fill:#5e6061;fill-opacity:1;fill-rule:nonzero;stroke:none"
         d="m 1764.8,2445.75 -255.43,76.22 -9.04,107.66 -120.89,22.64 -34.75,183.38 420.11,-389.9" /><path
         id="path3646"
         style="fill:#2e2d2d;fill-opacity:1;fill-rule:nonzero;stroke:none"
         d="m 1803.4,2816.26 -44.58,47.66 -92.86,-11.91 -23.37,-70.06 44.28,-37.45 -16.92,-211.1 94.85,-87.65 68.98,133.74 -64.7,176.39 34.32,60.38" /><path
         id="path3648"
         style="fill:#5e6061;fill-opacity:1;fill-rule:nonzero;stroke:none"
         d="m 1749.02,2363.94 c 6.34,-16.24 24.64,-24.24 40.87,-17.91 16.24,6.33 24.23,24.63 17.9,40.87 -6.33,16.23 -24.64,24.23 -40.85,17.9 -16.24,-6.35 -24.26,-24.64 -17.92,-40.86" /><path
         id="path3650"
         style="fill:#5e6061;fill-opacity:1;fill-rule:nonzero;stroke:none"
         d="m 1767.31,2220.81 c 6.36,-16.23 24.66,-24.24 40.87,-17.9 16.23,6.34 24.25,24.63 17.88,40.85 -6.31,16.24 -24.62,24.25 -40.85,17.91 -16.22,-6.33 -24.25,-24.63 -17.9,-40.86" /><path
         id="path3652"
         style="fill:#504133;fill-opacity:1;fill-rule:nonzero;stroke:none"
         d="m 1949.24,4302.29 c 0,0 380.8,-733.31 -796.13,-770.97 l 13.38,-230.96 c 0,0 -111.79,95.11 -120.26,-17.14 -9.76,-129.25 105.51,-75.64 105.51,-75.64 0,0 -68.75,-273.78 -164.404,-398.36 -5.34,-6.94 -543.762,999.44 -42.199,1019.52 0,0 -9.887,258.4 301.753,346.88 435.44,123.62 468.77,-231.65 702.35,126.67" /><path
         id="path3654"
         style="fill:#e9e8e7;fill-opacity:1;fill-rule:nonzero;stroke:none"
         d="m 2840.14,3094.75 -218.22,145.24 206.04,309.57 218.22,-145.25 -206.04,-309.56" /><path
         id="path3656"
         style="fill:#83b591;fill-opacity:1;fill-rule:nonzero;stroke:none"
         d="m 2901.5,3186.94 0,0 124.87,187.6 0,0 -124.87,-187.6" /><path
         id="path3658"
         style="fill:#dddbd9;fill-opacity:1;fill-rule:nonzero;stroke:none"
         d="m 2901.5,3186.94 -93.32,332.82 c 31.8,-29.27 66.28,-56.42 103.4,-81.13 37.12,-24.7 75.52,-46.05 114.79,-64.09 l -124.87,-187.6" /><path
         id="path3662"
         style="fill:#f5f6f5;fill-opacity:1;fill-rule:nonzero;stroke:none"
         d="m 3636.93,3427.25 0,0 c 3.76,1.4 7.51,2.84 11.24,4.3 52.28,20.44 102.5,46.81 149.51,78.85 l 0,0 c -50.37,-34.33 -104.42,-62.15 -160.75,-83.15" /><path
         id="path3664"
         style="fill:#e09c56;fill-opacity:1;fill-rule:nonzero;stroke:none"
         d="m 3797.68,3510.4 0,0 c 9.32,6.36 18.5,12.92 27.56,19.72 22.84,17.13 44.85,35.69 65.85,55.61 24.23,22.98 47.12,47.77 68.51,74.4 l 0,0 c -47.3,-58.86 -102.01,-108.9 -161.92,-149.73" /><path
         id="path3666"
         style="fill:#909190;fill-opacity:1;fill-rule:nonzero;stroke:none"
         d="m 3372.69,3379.58 c -27.27,0 -54.59,1.48 -81.84,4.47 l 0,934.65 c 0,68.5 55.54,124.04 124.04,124.04 l 560.5,0 c 36.61,-64.19 63.15,-133.3 79.07,-204.7 l -582.07,0 0,-851.84 c -33,-4.4 -66.3,-6.62 -99.7,-6.62" /><path
         id="path3668"
         style="fill:#f5f6f5;fill-opacity:1;fill-rule:nonzero;stroke:none"
         d="m 3472.39,3386.2 0,851.84 582.07,0 c 14.79,-66.33 20.42,-134.68 16.49,-202.96 l -179.86,0 0,-102.72 166.62,0 c -5.04,-24.97 -11.4,-49.79 -19.12,-74.36 l -147.5,0 0,-102.71 106.45,0 c -12.17,-24.82 -25.85,-49.19 -41.08,-73.01 l -65.37,0 0,-87.22 c -16.99,-19.46 -34.85,-37.85 -53.45,-55.18 18.42,14.43 36.26,29.79 53.45,46.06 l 0,-0.21 c -21,-19.92 -43.01,-38.48 -65.85,-55.61 l 0,12.27 -177.07,0 0,-110.84 c -3.73,-1.46 -7.48,-2.9 -11.24,-4.3 -10.55,-3.93 -21.22,-7.64 -31.93,-11.09 -43.23,-13.95 -87.62,-23.97 -132.61,-29.96 m 175.78,331.9 0,-175.71 177.07,0 0,352.79 -177.07,0 0,-177.08 m 0,354.16 0,-177.08 177.07,0 0,177.08 -177.07,0 m 328.58,-389.98 -0.02,0 c 7.62,10.22 15.02,20.68 22.19,31.39 -7.15,-10.69 -14.57,-21.19 -22.17,-31.39" /><path
         id="path3670"
         style="fill:#cfda86;fill-opacity:1;fill-rule:nonzero;stroke:none"
         d="m 3648.17,3895.18 177.066,0 0,177.082 -177.066,0 0,-177.082 z" /><path
         id="path3672"
         style="fill:#f9d478;fill-opacity:1;fill-rule:nonzero;stroke:none"
         d="m 3648.17,3718.1 0,177.08 177.07,0 0,-175.71 -177.07,0 0,-1.37" /><path
         id="path3674"
         style="fill:#e09c56;fill-opacity:1;fill-rule:nonzero;stroke:none"
         d="m 3825.24,3542.39 -177.07,0 0,177.08 177.07,0 0,-177.08" /><path
         id="path3676"
         style="fill:#cc795d;fill-opacity:1;fill-rule:nonzero;stroke:none"
         d="m 3648.17,3431.55 0,110.84 177.07,0 0,-12.27 c -9.06,-6.8 -18.24,-13.36 -27.56,-19.72 -47.01,-32.04 -97.23,-58.41 -149.51,-78.85" /><path
         id="path3678"
         style="fill:#e9e8e7;fill-opacity:1;fill-rule:nonzero;stroke:none"
         d="m 4057.71,3932.36 -166.62,0 0,102.72 179.86,0 c -1.97,-34.35 -6.37,-68.66 -13.24,-102.72" /><path
         id="path3680"
         style="fill:#e9e8e7;fill-opacity:1;fill-rule:nonzero;stroke:none"
         d="m 3997.54,3755.29 -106.45,0 0,102.71 147.5,0 c -10.95,-34.84 -24.62,-69.19 -41.05,-102.71" /><path
         id="path3682"
         style="fill:#e9e8e7;fill-opacity:1;fill-rule:nonzero;stroke:none"
         d="m 3891.09,3585.73 0,0.21 c 30.81,29.18 59.51,61.3 85.64,96.34 l 0.02,0 c -5.6,-7.52 -11.31,-14.9 -17.15,-22.15 -21.39,-26.63 -44.28,-51.42 -68.51,-74.4 m 0,9.33 0,87.22 65.37,0 c -2.46,-3.84 -4.96,-7.67 -7.5,-11.49 -17.87,-26.84 -37.23,-52.07 -57.87,-75.73" /><path
         id="path3684"
         style="fill:#f5f6f5;fill-opacity:1;fill-rule:nonzero;stroke:none"
         d="m 3999.02,3713.83 c 0.13,0.19 0.27,0.39 0.39,0.58 -0.12,-0.19 -0.26,-0.4 -0.39,-0.58" /><path
         id="path3686"
         style="fill:#f5f6f5;fill-opacity:1;fill-rule:nonzero;stroke:none"
         d="m 3999.55,3714.61 c 0.16,0.25 0.33,0.49 0.49,0.74 -0.17,-0.26 -0.32,-0.49 -0.49,-0.74" /><path
         id="path3688"
         style="fill:#aed0b5;fill-opacity:1;fill-rule:nonzero;stroke:none"
         d="m 2744.58,4546.34 c 0.13,0.19 0.22,0.33 0.35,0.52 -0.12,-0.17 -0.23,-0.35 -0.35,-0.52 m 0.65,0.97 c 0.08,0.13 0.18,0.29 0.27,0.42 -0.09,-0.14 -0.18,-0.28 -0.27,-0.42 m 0.65,1 c 0.07,0.1 0.15,0.22 0.22,0.32 -0.07,-0.11 -0.14,-0.21 -0.22,-0.32 m 1.36,2.04 c 1.54,2.3 3.09,4.6 4.64,6.87 -1.55,-2.27 -3.1,-4.57 -4.64,-6.87 m 1041.62,209.83 c -0.95,0.63 -1.91,1.27 -2.86,1.89 0.95,-0.62 1.91,-1.26 2.86,-1.89 m -2.9,1.91 c -127.08,83.31 -270.26,123.2 -411.84,123.22 141.61,-0.01 284.74,-39.9 411.84,-123.22 m -411.97,123.22 c 0.03,0 0.05,0 0.08,0 l 0,0 c -0.03,0 -0.05,0 -0.08,0" /><path
         id="path3690"
         style="fill:#e9e8e7;fill-opacity:1;fill-rule:nonzero;stroke:none"
         d="m 2956.27,3505.79 c -346.09,230.35 -439.92,697.66 -209.56,1043.76 230.36,346.1 697.67,439.92 1043.77,209.56 346.09,-230.36 439.92,-697.67 209.56,-1043.76 -230.36,-346.1 -697.67,-439.93 -1043.77,-209.56 m 878.9,1320.47 c -383.18,255.04 -900.57,151.17 -1155.61,-232.02 -255.04,-383.18 -151.17,-900.56 232.02,-1155.61 383.18,-255.04 900.56,-151.16 1155.61,232.02 255.05,383.18 151.17,900.57 -232.02,1155.61" /><path
         id="path3692"
         style="fill:#4d4d4d;fill-opacity:1;fill-rule:nonzero;stroke:none"
         d="m 2647.53,4332.01 c 20.41,74.2 52.44,146.53 97.01,214.26 0.01,0.02 0.03,0.05 0.04,0.07 0.12,0.17 0.23,0.35 0.35,0.52 0.1,0.15 0.2,0.31 0.3,0.45 0.09,0.14 0.18,0.28 0.27,0.42 0.12,0.19 0.26,0.39 0.38,0.58 0.08,0.11 0.15,0.21 0.22,0.32 0.21,0.32 0.4,0.6 0.61,0.92 l 0,0 c 0.18,0.28 0.35,0.53 0.53,0.8 1.54,2.3 3.09,4.6 4.64,6.87 145.46,212.92 381.58,328.06 622.11,328.09 0.03,0 0.05,0 0.08,0 0.02,0 0.02,0 0.05,0 141.58,-0.02 284.76,-39.91 411.84,-123.22 l 0.04,-0.02 c 0.95,-0.62 1.91,-1.26 2.86,-1.89 0.55,-0.36 1.07,-0.7 1.62,-1.07 l 0,0 c 122.03,-81.22 212.71,-191.93 268.86,-316.37 l -83.95,0 c -54.9,96.26 -132.48,181.5 -231.03,247.09 -125.2,83.34 -266.63,123.21 -406.54,123.21 -237.68,0 -470.93,-115.12 -612.49,-327.81 -32.57,-48.93 -58.29,-100.39 -77.8,-153.22" /><path
         id="path3694"
         style="fill:#dddbd9;fill-opacity:1;fill-rule:nonzero;stroke:none"
         d="m 4073.89,3856.41 0,0 c 0.21,0.52 0.42,1.07 0.63,1.59 9.61,24.49 17.87,49.33 24.77,74.36 1.65,5.99 3.22,11.97 4.72,17.98 l 0,0 c -7.89,-31.68 -17.93,-63.08 -30.12,-93.93" /><path
         id="path3696"
         style="fill:#dddbd9;fill-opacity:1;fill-rule:nonzero;stroke:none"
         d="m 4019.81,3746.67 0,0 c 1.72,2.87 3.41,5.74 5.08,8.62 6.36,10.95 12.38,21.97 18.13,33.12 l 0,0 c -7.26,-14.08 -14.97,-27.97 -23.21,-41.74" /><path
         id="path3698"
         style="fill:#333333;fill-opacity:1;fill-rule:nonzero;stroke:none"
         d="m 4118.72,4238.04 -64.26,0 c -15.92,71.4 -42.46,140.51 -79.07,204.7 l 83.95,0 c 29.43,-65.2 49.37,-134.2 59.38,-204.7" /><path
         id="path3700"
         style="fill:#e9e8e7;fill-opacity:1;fill-rule:nonzero;stroke:none"
         d="m 3837.64,3539.88 c 18.6,17.33 36.46,35.72 53.45,55.18 l 0,-9.12 c -17.19,-16.27 -35.03,-31.63 -53.45,-46.06 m 139.09,142.4 -20.27,0 c 15.23,23.82 28.91,48.19 41.08,73.01 l 27.35,0 c -1.67,-2.88 -3.36,-5.75 -5.08,-8.62 -6.3,-10.53 -12.9,-20.99 -19.77,-31.32 l 0,0 c -0.16,-0.25 -0.33,-0.49 -0.49,-0.74 -0.04,-0.06 -0.09,-0.14 -0.14,-0.2 -0.12,-0.19 -0.26,-0.39 -0.39,-0.58 -0.04,-0.07 -0.06,-0.1 -0.1,-0.16 -7.17,-10.71 -14.57,-21.17 -22.19,-31.39 m 97.79,175.72 -35.93,0 c 7.72,24.57 14.08,49.39 19.12,74.36 l 41.58,0 c -6.9,-25.03 -15.16,-49.87 -24.77,-74.36 m 45.48,177.08 -49.05,0 c 3.93,68.28 -1.7,136.63 -16.49,202.96 l 64.26,0 c 5.02,-35.31 7.54,-70.96 7.52,-106.75 -0.02,-32.06 -2.09,-64.2 -6.24,-96.21" /><path
         id="path3702"
         style="fill:#dddbd9;fill-opacity:1;fill-rule:nonzero;stroke:none"
         d="m 4099.29,3932.36 -41.58,0 c 6.87,34.06 11.27,68.37 13.24,102.72 l 49.05,0 c -3.68,-28.4 -9,-56.68 -15.99,-84.74 -1.5,-6.01 -3.07,-11.99 -4.72,-17.98" /><path
         id="path3704"
         style="fill:#dddbd9;fill-opacity:1;fill-rule:nonzero;stroke:none"
         d="m 4024.89,3755.29 -27.35,0 c 16.43,33.52 30.1,67.87 41.05,102.71 l 35.93,0 c -0.21,-0.52 -0.42,-1.07 -0.63,-1.59 -9.08,-22.98 -19.37,-45.68 -30.87,-68 -5.75,-11.15 -11.77,-22.17 -18.13,-33.12" /><path
         id="path3706"
         style="fill:#dddbd9;fill-opacity:1;fill-rule:nonzero;stroke:none"
         d="m 3891.09,3585.94 0,9.12 c 20.64,23.66 40,48.89 57.87,75.73 2.54,3.82 5.04,7.65 7.5,11.49 l 20.27,0 c -26.13,-35.04 -54.83,-67.16 -85.64,-96.34" /><path
         id="path3708"
         style="fill:#dddbd9;fill-opacity:1;fill-rule:nonzero;stroke:none"
         d="m 3998.92,3713.67 c 0.04,0.06 0.06,0.09 0.1,0.16 -0.03,-0.06 -0.07,-0.11 -0.1,-0.16 m 0.49,0.74 c 0.05,0.06 0.1,0.14 0.14,0.2 -0.05,-0.07 -0.09,-0.13 -0.14,-0.2 m 0.63,0.94 0,0 c 85.26,128.09 126.11,272.79 126.2,415.94 -0.09,-143.15 -40.94,-287.85 -126.2,-415.94 l 0,0 m -1255.5,830.92 c 0.01,0.02 0.03,0.04 0.04,0.07 -0.01,-0.02 -0.03,-0.05 -0.04,-0.07 m 0.39,0.59 c 0.1,0.15 0.2,0.3 0.3,0.45 -0.1,-0.14 -0.2,-0.3 -0.3,-0.45 m 0.57,0.87 c 0.13,0.19 0.26,0.38 0.38,0.58 -0.12,-0.19 -0.26,-0.39 -0.38,-0.58 m 0.6,0.9 c 0.2,0.31 0.41,0.61 0.61,0.92 -0.21,-0.32 -0.4,-0.6 -0.61,-0.92 m 0.61,0.92 c 0.18,0.28 0.35,0.53 0.53,0.8 -0.18,-0.27 -0.35,-0.52 -0.53,-0.8 m 5.17,7.67 c 145.47,212.94 381.55,328.08 622.11,328.09 -240.53,-0.03 -476.65,-115.17 -622.11,-328.09 m 1038.6,201.89 c -0.55,0.37 -1.07,0.71 -1.62,1.07 0.55,-0.36 1.07,-0.7 1.62,-1.07 m -4.48,2.96 -0.04,0.02 0.04,-0.02 m -411.88,123.24 c -0.03,0 -0.03,0 -0.05,0 l 0,0 c 0.02,0 0.02,0 0.05,0" /><path
         id="path3710"
         style="fill:#5e6061;fill-opacity:1;fill-rule:nonzero;stroke:none"
         d="m 2033.43,1881.22 -219.61,146.17 c -23.94,15.94 -30.43,48.25 -14.49,72.19 l 749.7,1126.38 c 15.94,23.94 48.25,30.43 72.19,14.49 l 219.62,-146.17 c 23.93,-15.93 30.42,-48.25 14.49,-72.19 L 2105.62,1895.71 c -15.93,-23.93 -48.25,-30.42 -72.19,-14.49" /><path
         id="path3712"
         style="fill:#545557;fill-opacity:1;fill-rule:nonzero;stroke:none"
         d="m 1909.55,1963.68 -58.04,38.63 18.28,88.17 c 0,0 17.97,4.04 39.61,4.04 35.96,0 82.06,-11.17 72.65,-70.6 -7.44,-46.98 -40.7,-59.55 -72.5,-60.24" /><path
         id="path3714"
         style="fill:#fbd8b6;fill-opacity:1;fill-rule:nonzero;stroke:none"
         d="m 1836.01,1982.11 c 0,0 121.17,-46.05 136.25,49.16 15.07,95.2 -112.25,66.56 -112.25,66.56 l -24,-115.72" /><path
         id="path3716"
         style="fill:#f8f8f8;fill-opacity:1;fill-rule:nonzero;stroke:none"
         d="m 1839.05,2105.23 30.79,-1.43 -26.92,-129.1 -32.1,3.11 28.23,127.42" /><path
         id="path3718"
         style="fill:#2a2928;fill-opacity:1;fill-rule:nonzero;stroke:none"
         d="m 1583.33,1997.31 c -42.59,17.15 -81.68,36.28 -117.49,56.9 91.21,10.13 175.13,21.48 242.8,32.36 0,0 21.56,3.89 52.56,9.98 12.17,-3.36 23.08,-6.05 32.46,-8.2 -7.18,-19.93 -1.51,-42.65 14.74,-56.82 -65.16,-12.72 -140.65,-24.9 -225.07,-34.22" /><path
         id="path3720"
         style="fill:#2a2928;fill-opacity:1;fill-rule:nonzero;stroke:none"
         d="m 1465.84,2054.21 c -389.31,224.2 -394.83,627.12 -394.83,627.12 l 127.56,2.39 c 89.06,-412.16 416.94,-547 562.63,-587.17 -31,-6.09 -52.56,-9.98 -52.56,-9.98 -67.67,-10.88 -151.59,-22.23 -242.8,-32.36" /><path
         id="path3722"
         style="fill:#545557;fill-opacity:1;fill-rule:nonzero;stroke:none"
         d="m 1808.4,2031.53 c -16.25,14.17 -21.92,36.89 -14.74,56.82 24.04,-5.48 38.12,-7.33 38.12,-7.33 l -13.87,-47.62 c -3.15,-0.63 -6.31,-1.25 -9.51,-1.87" /><path
         id="path3724"
         style="fill:#2e2d2d;fill-opacity:1;fill-rule:nonzero;stroke:none"
         d="m 1071.01,2681.33 c 0,0 33.35,-603.02 749.07,-713.96 l 35.96,145.75 c 0,0 -520.01,46.36 -657.68,575.89 l -127.35,-7.68" /><path
         id="path3726"
         style="fill:#5e6061;fill-opacity:1;fill-rule:nonzero;stroke:none"
         d="m 1750.49,2001.62 c 7.58,-0.53 14.15,5.17 14.7,12.73 0.5,7.58 -5.18,14.15 -12.74,14.68 -7.56,0.55 -14.14,-5.16 -14.7,-12.71 -0.53,-7.58 5.17,-14.15 12.74,-14.7" /><path
         id="path3728"
         style="fill:#5e6061;fill-opacity:1;fill-rule:nonzero;stroke:none"
         d="m 1795.82,1990.14 c 7.57,-0.54 14.13,5.15 14.68,12.73 0.55,7.56 -5.16,14.13 -12.72,14.66 -7.57,0.54 -14.15,-5.15 -14.69,-12.73 -0.55,-7.55 5.15,-14.14 12.73,-14.66" /></g></g></svg>