<?xml version="1.0" encoding="utf-8"?>
<!-- Generator: Adobe Illustrator 16.0.0, SVG Export Plug-In . SVG Version: 6.00 Build 0)  -->
<!DOCTYPE svg PUBLIC "-//W3C//DTD SVG 1.1//EN" "http://www.w3.org/Graphics/SVG/1.1/DTD/svg11.dtd">
<svg version="1.1" id="Capa_1" xmlns="http://www.w3.org/2000/svg" xmlns:xlink="http://www.w3.org/1999/xlink" x="0px" y="0px"
	 width="3019.08px" height="841.89px" viewBox="0 0 3019.08 841.89" enable-background="new 0 0 3019.08 841.89"
	 xml:space="preserve">
<rect x="-2" fill="#FFFFFF" width="3019.08" height="841.89"/>
<g>
	<g>
		<linearGradient id="SVGID_1_" gradientUnits="userSpaceOnUse" x1="2579.3135" y1="147.5283" x2="2054.1152" y2="147.5284">
			<stop  offset="0.2147" style="stop-color:#5C55A0"/>
			<stop  offset="0.4764" style="stop-color:#4C4999"/>
			<stop  offset="0.7749" style="stop-color:#60C5E7"/>
			<stop  offset="1" style="stop-color:#77C092"/>
		</linearGradient>
		<polygon fill="url(#SVGID_1_)" points="2054.115,242.057 2579.313,242.057 2390.524,53.161 2390.262,53 2243.173,53 		"/>
		<linearGradient id="SVGID_2_" gradientUnits="userSpaceOnUse" x1="2484.9443" y1="53.1606" x2="2484.9443" y2="579.231">
			<stop  offset="0" style="stop-color:#934D98"/>
			<stop  offset="0.0733" style="stop-color:#B65098"/>
			<stop  offset="0.1115" style="stop-color:#C24994"/>
			<stop  offset="0.2602" style="stop-color:#E72486"/>
			<stop  offset="0.4793" style="stop-color:#E72760"/>
			<stop  offset="0.6806" style="stop-color:#E3312D"/>
		</linearGradient>
		<polygon fill="url(#SVGID_2_)" points="2390.415,53.161 2390.415,53.161 2390.415,579.23 2392.242,579.23 2579.474,392 
			2579.474,242.218 		"/>
		<linearGradient id="SVGID_3_" gradientUnits="userSpaceOnUse" x1="2053.7676" y1="486.5283" x2="2579.4736" y2="486.5283">
			<stop  offset="0.2513" style="stop-color:#FFED00"/>
			<stop  offset="0.3064" style="stop-color:#FFDF00"/>
			<stop  offset="0.3719" style="stop-color:#FFD300"/>
			<stop  offset="0.4394" style="stop-color:#FECB00"/>
			<stop  offset="0.5113" style="stop-color:#FDC800"/>
			<stop  offset="0.7418" style="stop-color:#F18F34"/>
			<stop  offset="1" style="stop-color:#E3312D"/>
		</linearGradient>
		<polygon fill="url(#SVGID_3_)" points="2053.768,392 2242.824,581.057 2390.415,581.057 2579.474,392 		"/>
		<linearGradient id="SVGID_4_" gradientUnits="userSpaceOnUse" x1="2148.2949" y1="581.0566" x2="2148.2949" y2="241.9985">
			<stop  offset="0.3246" style="stop-color:#FFE513"/>
			<stop  offset="0.5707" style="stop-color:#AFCA0B"/>
			<stop  offset="0.733" style="stop-color:#58B031"/>
			<stop  offset="1" style="stop-color:#77C092"/>
		</linearGradient>
		<polygon fill="url(#SVGID_4_)" points="2054.174,241.998 2053.766,242.407 2053.766,391.998 2242.824,581.057 2242.824,241.998 		
			"/>
	</g>
	<rect x="2040.473" y="586.118" fill="none" width="552.295" height="136.69"/>
	<text transform="matrix(0.83 0 0 0.73 2042.9805 707.1172)" font-family="'Adam'" font-size="175.3655" letter-spacing="69.88">VOTA</text>
	<rect x="2067.623" y="712.154" fill="none" width="497.993" height="74.431"/>
	<text transform="matrix(0.83 0 0 0.59 2096.2588 766.3525)" font-family="'Adam'" font-size="78.5491" letter-spacing="31.325">PROJECT</text>
</g>
<g>
	<path fill-rule="evenodd" clip-rule="evenodd" d="M123.1,312.289c-0.005-12.665-0.015-12.695,10.708-16.141
		c82.242-26.434,164.482-52.875,246.764-79.187c2.482-0.794,5.678-0.976,8.092-0.142c57.313,19.798,114.557,39.797,171.847,59.666
		c3.611,1.252,5.108,2.815,3.993,6.859c-0.729,2.646-0.386,5.623-0.311,8.445c0.103,3.88,0.645,7.712-4.822,8.729
		c-0.899,0.167-1.778,2.947-1.87,4.565c-0.859,15.135-1.537,30.281-2.284,45.422c-1.913,38.77-3.837,77.538-5.754,116.307
		c-0.329,6.656-0.775,13.311-0.912,19.971c-0.063,3.045-1.265,4.68-3.973,6.086c-44.129,22.916-88.199,45.941-132.285,68.941
		c-33.914,17.693-67.877,35.295-101.695,53.172c-5.027,2.656-8.402,3.047-13.736-0.436c-22.848-14.91-46.25-28.971-69.459-43.324
		c-27.032-16.719-54.018-33.516-81.176-50.029c-4.059-2.467-5.605-5.225-5.764-9.865c-0.924-27.145-2.137-54.277-3.234-81.416
		c-1.345-33.296-2.648-66.594-4.081-99.888c-0.06-1.386-0.992-3.699-1.927-3.932C122.634,323.962,122.022,317.862,123.1,312.289z
		 M300.144,406.775c-54.113-25.883-107.391-51.367-161.401-77.201c2.516,62.196,4.987,123.295,7.46,184.409
		c1.007-0.047,1.371,0.029,1.652-0.09c49.878-21.035,99.759-42.063,149.57-63.256c1.299-0.553,2.578-2.902,2.602-4.434
		C300.228,432.719,300.144,419.23,300.144,406.775z M384.212,282.585c-1.999,0.556-3.432,0.871-4.807,1.35
		c-16.633,5.786-33.256,11.6-49.885,17.398c-11.447,3.992-22.869,8.065-34.393,11.828c-1.357,0.443-3.285-0.854-4.947-1.345
		c0.922-1.511,1.726-3.118,2.827-4.485c0.431-0.535,1.54-0.504,2.323-0.777c28.389-9.907,56.784-19.794,85.138-29.801
		c1.429-0.504,3.542-2.023,3.564-3.106c0.253-12.295,0.161-24.598,0.161-37.542c-77.229,25.438-153.876,50.685-231.352,76.205
		c1.602,0.913,2.277,1.354,2.997,1.7c46.317,22.222,92.624,44.465,139.009,66.545c1.783,0.849,4.565,0.775,6.459,0.04
		c26.342-10.225,52.59-20.687,78.919-30.946c3.149-1.227,4.106-2.892,4.073-6.243c-0.183-18.498-0.088-36.999-0.088-55.498
		C384.212,286.292,384.212,284.677,384.212,282.585z M507.304,445.918c-2.436,7.414-4.703,14.313-7.068,21.514
		c14.223,6.752,28.249,13.41,42.797,20.316c3.054-61.811,6.063-122.735,9.095-184.112c-1.44,0.38-2.245,0.505-2.981,0.801
		c-53.301,21.426-106.584,42.896-159.927,64.219c-2.861,1.145-3.128,2.799-3.114,5.296c0.071,12.324,0.025,24.649,0.056,36.974
		c0.003,1.26,0.244,2.52,0.401,4.03c22.002-0.627,43.641-1.242,65.85-1.875c-0.523,8.051-0.793,15.557-1.613,23
		c-0.297,2.682,0.086,3.557,2.773,3.813c9.601,0.91,19.188,1.969,28.771,3.049C490.564,443.867,498.773,444.896,507.304,445.918z
		 M345.997,521.033c31.881,0,62.932,0,94.215,0c2.795-35.072,5.533-69.416,8.296-104.09c-2.847,0-4.829-0.109-6.795,0.02
		c-7.417,0.492-14.821,1.385-22.242,1.535c-19.069,0.389-38.145,0.492-57.218,0.631c-2.894,0.02-3.857,1.094-4.211,4.064
		c-2.777,23.271-5.807,46.514-8.713,69.77C348.157,502.34,347.099,511.73,345.997,521.033z M299.905,609.631
		c0-15.064,0-29.258,0-42.08c-3.486-1.152-6.608-1.527-8.96-3.074c-10.698-7.035-21.181-14.4-31.738-21.65
		c-9.292-6.381-18.581-12.766-28.177-19.359c2.311-1.377,4.145-2.514,6.016-3.582c19.771-11.299,39.568-22.557,59.291-33.941
		c1.53-0.885,3.596-2.617,3.641-4.012c0.314-9.889,0.168-19.793,0.168-30.336c-50.789,21.471-100.853,42.635-151.928,64.225
		C199.194,547.346,249.265,578.313,299.905,609.631z M386.291,274.616c2.323-0.713,4.062-1.667,5.79-1.651
		c1.526,0.014,3.043,1.11,4.564,1.728c-0.871,1.386-1.597,3.844-2.638,3.986c-7.775,1.06-8.665,6.014-7.932,12.434
		c0.376,3.29,0.064,6.657,0.064,9.989c0,15.123,0,30.246,0,46.051c12.337-4.868,24.105-9.51,35.874-14.153
		c-2.771-1.137-5.352-1.02-7.918-1.159c-7.767-0.42-8.883-1.614-8.883-9.155c0-2.333,0.189-4.684-0.039-6.994
		c-0.363-3.674,1.436-6.22,4.697-6.472c6.205-0.479,12.496-0.457,18.707-0.007c3.349,0.242,4.903,2.786,4.637,6.46
		c-0.293,4.055-0.066,8.148-0.066,12.948c33.555-13.243,66.288-26.16,100.428-39.633c-49.982-17.907-98.446-35.27-147.286-52.767
		C386.291,249.432,386.291,261.732,386.291,274.616z M305.481,611.342c46.749-24.404,92.625-48.352,138.501-72.299
		c-0.149-0.301-0.299-0.602-0.448-0.902c-16.683-0.514-33.365-1.029-50.33-1.551c1.084-4.127,2.001-7.621,3.035-11.561
		c-7.797,0-15.234-0.025-22.669,0.039c-0.776,0.006-1.597,0.453-2.313,0.848c-21.107,11.633-42.227,23.248-63.25,35.031
		c-1.24,0.697-2.4,2.775-2.418,4.227C305.413,580.15,305.481,595.133,305.481,611.342z M397.54,534.049
		c12.541,0,24.104-0.969,35.432,0.252c13.208,1.424,24.634-1.354,36-7.979c6.373-3.715,10.66-7.486,12.902-14.871
		c6.306-20.779,13.546-41.275,20.629-62.518c-17.551-1.957-34.667-3.867-52.311-5.834c-2.239,27.23-4.455,54.18-6.708,81.582
		c-14.758,0-28.886,0-43.097,0C399.535,527.484,398.819,529.84,397.54,534.049z M305.466,447.084c2.065-0.783,3.422-1.25,4.74-1.805
		c11.475-4.822,22.766-10.16,34.479-14.305c7.212-2.555,10.938-6.465,10.65-14.084c-0.008-0.238,0.358-0.49,1.332-1.738
		c8.604,0,17.992,0,27.309,0c0-15.257,0-29.501,0-44.139c-2.17,0.789-4.033,1.406-5.852,2.139
		c-20.174,8.121-40.336,16.268-60.509,24.391c-12.145,4.891-12.149,4.877-12.149,18.143
		C305.466,425.941,305.466,436.199,305.466,447.084z M383.621,221.67c-83.495,26.834-167.025,53.681-251.648,80.878
		c5.313,2.553,9.495,4.953,13.962,6.559c2.564,0.921,5.885,1.448,8.369,0.636c73.402-24.008,146.742-48.203,220.09-72.38
		c10.637-3.506,10.629-3.532,9.602-14.749C383.979,222.456,383.877,222.306,383.621,221.67z M363.21,526.182
		c-0.16-0.391-0.319-0.783-0.479-1.174c-6.777,0-13.556,0-20.9,0c1.287-10.578,2.32-20.811,3.82-30.975
		c2.158-14.623,2.349-14.68-10.499-22.412c-1.429-0.859-4.12-0.938-5.601-0.17c-6.936,3.588-13.57,7.752-20.482,11.387
		c-2.977,1.566-3.703,3.572-3.683,6.748c0.135,21.318,0.068,42.639,0.087,63.957c0.002,1.236,0.179,2.471,0.324,4.348
		C325.321,547.107,344.266,536.645,363.21,526.182z M237.979,523.541c1.433,1.143,2.166,1.805,2.973,2.357
		c17.129,11.744,34.232,23.525,51.458,35.125c1.478,0.994,4.092,1.535,5.578,0.895c1.194-0.514,2.067-3.135,2.077-4.828
		c0.134-21.789,0.09-43.582,0.074-65.373c0-0.922-0.164-1.846-0.32-3.469C279.029,500.113,258.761,511.682,237.979,523.541z
		 M555.15,280.438c-56.987-19.854-112.749-39.279-169.015-58.881c0,3.613-0.389,6.511,0.145,9.227
		c0.326,1.663,1.756,3.905,3.217,4.434c47.788,17.317,95.637,34.467,143.498,51.578c1.461,0.522,3.353,0.915,4.72,0.439
		C543.178,285.334,548.513,283.066,555.15,280.438z M131.253,319.856c55.143,26.409,109.585,52.483,165.469,79.247
		c-1.984-5.474,2.232-10.516-4.387-13.66c-45.624-21.677-91.242-43.376-136.582-65.637c-8.208-4.03-15.366-4.902-23.271-0.742
		C132.335,319.141,132.2,319.243,131.253,319.856z M386.466,363.923c55.711-22.407,111.27-44.753,166.829-67.099
		c-5.319-1.37-9.298-6.193-15.25-3.825c-47.819,19.023-95.7,37.891-143.554,56.825C385.552,353.362,385.567,353.402,386.466,363.923
		z M305.505,480.754c8.1-4.625,15.258-8.439,22.116-12.734c3.628-2.273,6.397-2.268,9.755,0.43
		c3.121,2.508,6.756,4.377,10.592,6.797c1.925-15.67,3.742-30.469,5.563-45.275c-0.927-0.105-1.294-0.266-1.549-0.158
		c-14.697,6.135-29.404,12.252-44.039,18.533c-1.079,0.465-2.309,2.129-2.331,3.258
		C305.423,460.883,305.505,470.166,305.505,480.754z M483.124,518.652c19.723-10.318,38.13-19.949,57.373-30.02
		c-14.338-6.807-27.458-13.037-40.916-19.426C494.11,485.645,488.848,501.455,483.124,518.652z M301.287,397.904
		c2.032-0.734,3.575-1.24,5.079-1.844c23.101-9.258,46.203-18.514,69.291-27.805c8.881-3.575,8.867-3.617,8.467-13.002
		c-0.012-0.266-0.275-0.52-0.625-1.142c-26.625,10.526-53.295,21.043-79.912,31.695c-1.032,0.413-2.059,2.063-2.196,3.24
		C301.067,391.796,301.287,394.608,301.287,397.904z M409.565,319.464c-1.532,7.866-1.334,8.188,6.572,8.865
		c2.14,0.183,4.324,0.218,6.461,0.016c7.55-0.712,7.763-1.079,6.203-8.881C422.396,319.464,416.007,319.464,409.565,319.464z
		 M545.586,290.195c-0.004,0.386-0.008,0.771-0.012,1.158c4.079,1.381,8.159,2.763,12.658,4.286c0-4.018,0-6.964,0-10.432
		C553.567,287.047,549.577,288.621,545.586,290.195z M128.624,318.306c4.676-1.574,8.67-2.919,13.823-4.654
		c-5.319-2.475-9.285-4.32-13.823-6.431C128.624,311.24,128.624,314.326,128.624,318.306z"/>
	<path fill-rule="evenodd" clip-rule="evenodd" fill="#FFFFFF" d="M300.144,406.775c0,12.456,0.084,25.944-0.117,39.428
		c-0.023,1.531-1.303,3.881-2.602,4.434c-49.812,21.193-99.692,42.221-149.57,63.256c-0.281,0.119-0.646,0.043-1.652,0.09
		c-2.473-61.113-4.944-122.212-7.46-184.409C192.753,355.408,246.03,380.892,300.144,406.775z"/>
	<path fill-rule="evenodd" clip-rule="evenodd" fill="#FFFFFF" d="M384.212,282.585c0,2.092,0,3.707,0,5.323
		c0,18.5-0.095,37,0.088,55.498c0.033,3.351-0.924,5.016-4.073,6.243c-26.329,10.259-52.577,20.721-78.919,30.946
		c-1.894,0.735-4.676,0.809-6.459-0.04c-46.385-22.08-92.691-44.323-139.009-66.545c-0.72-0.346-1.396-0.787-2.997-1.7
		c77.476-25.52,154.123-50.767,231.352-76.205c0,12.943,0.092,25.246-0.161,37.542c-0.022,1.083-2.136,2.602-3.564,3.106
		c-28.354,10.007-56.749,19.894-85.138,29.801c-0.783,0.273-1.893,0.243-2.323,0.777c-1.102,1.367-1.905,2.974-2.827,4.485
		c1.662,0.491,3.59,1.788,4.947,1.345c11.523-3.763,22.945-7.836,34.393-11.828c16.629-5.798,33.252-11.612,49.885-17.398
		C380.78,283.456,382.213,283.141,384.212,282.585z"/>
	<path fill-rule="evenodd" clip-rule="evenodd" fill="#FFFFFF" d="M507.304,445.918c-8.53-1.021-16.739-2.051-24.961-2.977
		c-9.584-1.08-19.171-2.139-28.771-3.049c-2.688-0.256-3.07-1.131-2.773-3.813c0.82-7.443,1.09-14.949,1.613-23
		c-22.209,0.633-43.848,1.248-65.85,1.875c-0.157-1.51-0.398-2.77-0.401-4.03c-0.03-12.324,0.016-24.649-0.056-36.974
		c-0.014-2.497,0.253-4.151,3.114-5.296c53.343-21.323,106.626-42.793,159.927-64.219c0.736-0.296,1.541-0.42,2.981-0.801
		c-3.032,61.377-6.041,122.301-9.095,184.112c-14.548-6.906-28.574-13.564-42.797-20.316
		C502.601,460.23,504.868,453.332,507.304,445.918z"/>
	<path fill-rule="evenodd" clip-rule="evenodd" fill="#FFFFFF" d="M345.997,521.033c1.102-9.303,2.16-18.693,3.332-28.07
		c2.906-23.256,5.936-46.498,8.713-69.77c0.354-2.971,1.317-4.045,4.211-4.064c19.073-0.139,38.148-0.242,57.218-0.631
		c7.421-0.15,14.825-1.043,22.242-1.535c1.966-0.129,3.948-0.02,6.795-0.02c-2.763,34.674-5.501,69.018-8.296,104.09
		C408.929,521.033,377.878,521.033,345.997,521.033z"/>
	<path fill-rule="evenodd" clip-rule="evenodd" fill="#FFFFFF" d="M299.905,609.631c-50.641-31.318-100.711-62.285-151.688-93.811
		c51.075-21.59,101.139-42.754,151.928-64.225c0,10.543,0.146,20.447-0.168,30.336c-0.045,1.395-2.11,3.127-3.641,4.012
		c-19.723,11.385-39.52,22.643-59.291,33.941c-1.871,1.068-3.705,2.205-6.016,3.582c9.596,6.594,18.885,12.979,28.177,19.359
		c10.558,7.25,21.04,14.615,31.738,21.65c2.352,1.547,5.474,1.922,8.96,3.074C299.905,580.373,299.905,594.566,299.905,609.631z"/>
	<path fill-rule="evenodd" clip-rule="evenodd" fill="#FFFFFF" d="M386.291,274.616c0-12.883,0-25.184,0-38.393
		c48.84,17.498,97.304,34.86,147.286,52.767c-34.14,13.473-66.873,26.39-100.428,39.633c0-4.8-0.227-8.893,0.066-12.948
		c0.267-3.675-1.288-6.218-4.637-6.46c-6.211-0.45-12.502-0.472-18.707,0.007c-3.262,0.252-5.061,2.798-4.697,6.472
		c0.229,2.31,0.039,4.661,0.039,6.994c0,7.541,1.116,8.735,8.883,9.155c2.566,0.139,5.147,0.022,7.918,1.159
		c-11.769,4.643-23.537,9.286-35.874,14.153c0-15.806,0-30.929,0-46.051c0-3.332,0.312-6.7-0.064-9.989
		c-0.733-6.42,0.156-11.374,7.932-12.434c1.041-0.142,1.767-2.601,2.638-3.986c-1.521-0.618-3.038-1.714-4.564-1.728
		C390.353,272.949,388.614,273.903,386.291,274.616z"/>
	<path fill-rule="evenodd" clip-rule="evenodd" fill="#FFFFFF" d="M305.481,611.342c0-16.209-0.068-31.191,0.107-46.168
		c0.018-1.451,1.178-3.529,2.418-4.227c21.023-11.783,42.143-23.398,63.25-35.031c0.717-0.395,1.537-0.842,2.313-0.848
		c7.435-0.064,14.872-0.039,22.669-0.039c-1.034,3.939-1.951,7.434-3.035,11.561c16.965,0.521,33.647,1.037,50.33,1.551
		c0.149,0.301,0.299,0.602,0.448,0.902C398.106,562.99,352.23,586.938,305.481,611.342z"/>
	<path fill-rule="evenodd" clip-rule="evenodd" fill="#FFFFFF" d="M397.54,534.049c1.279-4.209,1.995-6.564,2.848-9.367
		c14.211,0,28.339,0,43.097,0c2.253-27.402,4.469-54.352,6.708-81.582c17.644,1.967,34.76,3.877,52.311,5.834
		c-7.083,21.242-14.323,41.738-20.629,62.518c-2.242,7.385-6.529,11.156-12.902,14.871c-11.366,6.625-22.792,9.402-36,7.979
		C421.644,533.08,410.081,534.049,397.54,534.049z"/>
	<path fill-rule="evenodd" clip-rule="evenodd" fill="#FFFFFF" d="M305.466,447.084c0-10.885,0-21.143,0-31.398
		c0-13.266,0.005-13.252,12.149-18.143c20.173-8.123,40.335-16.27,60.509-24.391c1.818-0.732,3.682-1.35,5.852-2.139
		c0,14.638,0,28.882,0,44.139c-9.316,0-18.705,0-27.309,0c-0.974,1.248-1.34,1.5-1.332,1.738c0.287,7.619-3.438,11.529-10.65,14.084
		c-11.713,4.145-23.004,9.482-34.479,14.305C308.888,445.834,307.531,446.301,305.466,447.084z"/>
	<path fill-rule="evenodd" clip-rule="evenodd" fill="#FFFFFF" d="M383.621,221.67c0.256,0.635,0.358,0.785,0.374,0.943
		c1.027,11.217,1.035,11.243-9.602,14.749c-73.348,24.177-146.688,48.372-220.09,72.38c-2.484,0.813-5.805,0.286-8.369-0.636
		c-4.467-1.605-8.648-4.006-13.962-6.559C216.596,275.351,300.126,248.505,383.621,221.67z"/>
	<path fill-rule="evenodd" clip-rule="evenodd" fill="#FFFFFF" d="M363.21,526.182c-18.944,10.463-37.889,20.926-57.412,31.709
		c-0.146-1.877-0.322-3.111-0.324-4.348c-0.019-21.318,0.048-42.639-0.087-63.957c-0.021-3.176,0.706-5.182,3.683-6.748
		c6.912-3.635,13.547-7.799,20.482-11.387c1.48-0.768,4.172-0.689,5.601,0.17c12.848,7.732,12.657,7.789,10.499,22.412
		c-1.5,10.164-2.533,20.396-3.82,30.975c7.345,0,14.123,0,20.9,0C362.891,525.398,363.05,525.791,363.21,526.182z"/>
	<path fill-rule="evenodd" clip-rule="evenodd" fill="#FFFFFF" d="M237.979,523.541c20.781-11.859,41.05-23.428,61.84-35.293
		c0.156,1.623,0.32,2.547,0.32,3.469c0.016,21.791,0.06,43.584-0.074,65.373c-0.01,1.693-0.883,4.314-2.077,4.828
		c-1.486,0.641-4.101,0.1-5.578-0.895c-17.226-11.6-34.329-23.381-51.458-35.125C240.146,525.346,239.412,524.684,237.979,523.541z"
		/>
	<path fill-rule="evenodd" clip-rule="evenodd" fill="#FFFFFF" d="M555.15,280.438c-6.638,2.629-11.973,4.897-17.436,6.797
		c-1.367,0.476-3.259,0.083-4.72-0.439c-47.861-17.111-95.71-34.261-143.498-51.578c-1.461-0.529-2.891-2.771-3.217-4.434
		c-0.533-2.716-0.145-5.614-0.145-9.227C442.401,241.159,498.163,260.584,555.15,280.438z"/>
	<path fill-rule="evenodd" clip-rule="evenodd" fill="#FFFFFF" d="M131.253,319.856c0.947-0.613,1.082-0.715,1.229-0.792
		c7.905-4.161,15.063-3.288,23.271,0.742c45.34,22.261,90.958,43.96,136.582,65.637c6.619,3.145,2.402,8.187,4.387,13.66
		C240.838,372.339,186.396,346.265,131.253,319.856z"/>
	<path fill-rule="evenodd" clip-rule="evenodd" fill="#FFFFFF" d="M386.466,363.923c-0.898-10.521-0.914-10.562,8.025-14.099
		c47.854-18.934,95.734-37.802,143.554-56.825c5.952-2.368,9.931,2.456,15.25,3.825C497.735,319.17,442.177,341.517,386.466,363.923
		z"/>
	<path fill-rule="evenodd" clip-rule="evenodd" fill="#FFFFFF" d="M305.505,480.754c0-10.588-0.082-19.871,0.106-29.15
		c0.022-1.129,1.252-2.793,2.331-3.258c14.635-6.281,29.342-12.398,44.039-18.533c0.255-0.107,0.622,0.053,1.549,0.158
		c-1.82,14.807-3.638,29.605-5.563,45.275c-3.836-2.42-7.471-4.289-10.592-6.797c-3.357-2.697-6.127-2.703-9.755-0.43
		C320.763,472.314,313.604,476.129,305.505,480.754z"/>
	<path fill-rule="evenodd" clip-rule="evenodd" fill="#FFFFFF" d="M483.124,518.652c5.724-17.197,10.986-33.008,16.457-49.445
		c13.458,6.389,26.578,12.619,40.916,19.426C521.254,498.703,502.847,508.334,483.124,518.652z"/>
	<path fill-rule="evenodd" clip-rule="evenodd" fill="#FFFFFF" d="M301.287,397.904c0-3.296-0.22-6.107,0.104-8.856
		c0.138-1.178,1.164-2.827,2.196-3.24c26.617-10.652,53.287-21.169,79.912-31.695c0.35,0.622,0.613,0.876,0.625,1.142
		c0.4,9.385,0.414,9.427-8.467,13.002c-23.088,9.291-46.19,18.547-69.291,27.805C304.862,396.664,303.319,397.169,301.287,397.904z"
		/>
	<path fill-rule="evenodd" clip-rule="evenodd" fill="#FFFFFF" d="M409.565,319.464c6.441,0,12.83,0,19.236,0
		c1.56,7.802,1.347,8.168-6.203,8.881c-2.137,0.202-4.321,0.167-6.461-0.016C408.231,327.652,408.033,327.33,409.565,319.464z"/>
	<path fill-rule="evenodd" clip-rule="evenodd" fill="#FFFFFF" d="M545.586,290.195c3.991-1.574,7.981-3.148,12.646-4.988
		c0,3.468,0,6.414,0,10.432c-4.499-1.523-8.579-2.905-12.658-4.286C545.578,290.967,545.582,290.581,545.586,290.195z"/>
	<path fill-rule="evenodd" clip-rule="evenodd" fill="#FFFFFF" d="M128.624,318.306c0-3.98,0-7.066,0-11.085
		c4.538,2.111,8.504,3.957,13.823,6.431C137.294,315.387,133.3,316.732,128.624,318.306z"/>
</g>
<g>
	<path d="M707.162,192.873c0,9.073-7.297,8.065-7.297,11.809c0,3.072,0.192,3.792,2.112,3.792c1.872,0,1.872-2.16,1.872-5.232h8.354
		c0,7.057-2.736,11.905-10.226,11.905c-8.593,0-10.753-3.216-10.753-10.273c0-7.296,7.825-6.048,7.825-12.001v-2.592h8.112V192.873z
		 M707.162,186.393h-8.064v-8.113h8.064V186.393z"/>
	<path d="M726.841,171.511c10.369,0,11.665,5.28,11.665,17.762c0,11.281-1.056,16.705-8.977,17.666c0.72,0.96,1.872,1.68,3.408,1.68
		c0.912,0,1.969-0.144,3.12-0.432c0,0,0,5.521-0.048,5.521c-1.536,0.288-2.928,0.432-4.128,0.432c-4.465,0-7.249-2.688-7.249-7.153
		c-8.305-0.768-9.36-5.76-9.36-17.713C715.272,176.792,716.521,171.511,726.841,171.511z M726.841,200.698
		c2.929,0,3.217-2.16,3.217-11.425c0-9.313-0.288-11.089-3.217-11.089c-2.88,0-3.168,1.776-3.168,11.089
		C723.673,198.778,723.961,200.698,726.841,200.698z"/>
	<path d="M755.785,191.145v-19.058h7.776v19.058c0,13.393-2.208,15.793-11.089,15.793s-11.089-2.4-11.089-15.793v-19.058h7.776
		v19.058c0,7.584,0.432,9.505,3.313,9.505C755.353,200.65,755.785,198.729,755.785,191.145z"/>
	<path d="M774.072,185.528h5.904v6.673h-5.904v7.489h8.305v6.672h-15.938v-34.275h15.938v6.672h-8.305V185.528z M770.279,170.071
		l4.992-5.665h8.978l-6.817,5.665H770.279z"/>
	<path d="M806.759,185.528h5.904v6.673h-5.904v7.489h8.305v6.672h-15.938v-34.275h15.938v6.672h-8.305V185.528z"/>
	<path d="M826.535,181.544c0,6.049,10.944,5.665,10.944,15.649c0,5.761-0.864,9.745-9.696,9.745c-8.257,0-9.841-5.232-9.841-12.289
		h8.353c0,3.072,0,5.616,1.488,5.616c1.151,0,1.344-1.2,1.344-3.12c0-6.336-10.753-5.521-10.753-15.793
		c0-7.057,2.017-9.841,9.793-9.841c7.009,0,9.553,4.849,9.553,11.905h-8.353c0-4.177-0.192-5.232-1.393-5.232
		C826.919,178.184,826.535,178.808,826.535,181.544z"/>
	<path d="M862.102,206.362h-7.633v-34.275h7.633c8.977,0,12.097,4.224,12.097,11.905c0,7.201-3.12,11.377-12.097,11.377V206.362z
		 M862.102,189.321c3.696,0,4.464-1.44,4.464-5.28s-0.768-5.761-4.464-5.761V189.321z"/>
	<path d="M884.709,193.449v12.913h-7.633v-34.275h7.633c8.977,0,12.097,3.264,12.097,10.465c0,3.937-0.72,6.816-2.929,8.161
		c4.033,3.12,2.593,11.713,3.601,15.649h-7.633c-0.672-3.36,0.624-9.937-2.352-12.913H884.709z M884.709,188.361
		c3.696,0,4.464-0.96,4.464-4.8s-0.768-5.281-4.464-5.281V188.361z"/>
	<path d="M920.854,189.273c0,12.913-0.769,17.666-11.089,17.666c-10.321,0-11.089-4.752-11.089-17.666
		c0-12.481,0.768-17.762,11.089-17.762C920.085,171.511,920.854,176.792,920.854,189.273z M907.076,189.273
		c0,9.505,0.288,10.993,2.688,10.993s2.688-1.488,2.688-10.993c0-9.313-0.288-11.089-2.688-11.089S907.076,179.96,907.076,189.273z"
		/>
	<path d="M932.132,194.601c0,4.849,0.72,5.665,2.208,5.665c1.104,0,1.729-0.72,1.729-10.993v-17.186h7.633v17.186
		c0,13.729-0.672,17.666-9.361,17.666c-8.736,0-10.608-3.792-10.608-12.337H932.132z"/>
	<path d="M954.212,185.528h5.904v6.673h-5.904v7.489h8.305v6.672h-15.938v-34.275h15.938v6.672h-8.305V185.528z"/>
	<path d="M979.124,195.033h8.354c0,7.057-3.024,11.905-10.514,11.905c-10.129,0-11.568-4.272-11.568-17.666
		c0-12.961,1.632-17.762,11.568-17.762c7.489,0,10.514,4.849,10.514,11.905h-8.354c0-3.072-0.432-5.232-2.544-5.232
		c-2.4,0-2.784,1.776-2.784,11.089c0,9.505,0.336,10.993,2.736,10.993C978.645,200.266,979.124,198.202,979.124,195.033z"/>
	<path d="M1004.852,206.362h-7.633V178.76h-6.864v-6.672h21.361v6.672h-6.864V206.362z"/>
	<path d="M1052.419,172.087l-8.161,34.275h-7.633l-8.16-34.275h8.112l3.841,22.994l3.888-22.994H1052.419z"/>
	<path d="M1076.994,189.273c0,12.913-0.769,17.666-11.089,17.666c-10.321,0-11.089-4.752-11.089-17.666
		c0-12.481,0.768-17.762,11.089-17.762C1076.226,171.511,1076.994,176.792,1076.994,189.273z M1063.217,189.273
		c0,9.505,0.288,10.993,2.688,10.993s2.688-1.488,2.688-10.993c0-9.313-0.288-11.089-2.688-11.089S1063.217,179.96,1063.217,189.273
		z"/>
	<path d="M1094.369,206.362h-7.633V178.76h-6.864v-6.672h21.361v6.672h-6.864V206.362z"/>
	<path d="M1117.025,172.087l7.681,34.275h-7.633l-0.864-5.232h-6.001l-0.863,5.232h-7.633l7.681-34.275H1117.025z M1111.217,194.938
		h3.936l-1.968-12.049L1111.217,194.938z"/>
	<path d="M1132.815,191.769c0-9.073,7.296-8.064,7.296-11.809c0-3.072-0.384-3.792-1.92-3.792s-2.064,2.16-2.064,5.232h-8.353
		c0-7.056,2.736-11.905,10.226-11.905c8.593,0,10.753,3.216,10.753,10.273c0,7.296-7.825,6.048-7.825,12.001v2.592h-8.112V191.769z
		 M1132.815,198.25h8.112v8.113h-8.112V198.25z"/>
	<path d="M696.396,277.14h4.428v5.003h-4.428v5.615h6.228v5.003h-11.95v-25.701h11.95v5.003h-6.228V277.14z"/>
	<path d="M711.229,274.152c0,4.536,8.207,4.248,8.207,11.735c0,4.319-0.648,7.307-7.271,7.307c-6.191,0-7.379-3.924-7.379-9.215
		h6.263c0,2.304,0,4.211,1.116,4.211c0.864,0,1.008-0.9,1.008-2.34c0-4.751-8.063-4.14-8.063-11.842
		c0-5.292,1.512-7.379,7.343-7.379c5.255,0,7.163,3.636,7.163,8.927h-6.264c0-3.131-0.144-3.923-1.044-3.923
		C711.516,271.633,711.229,272.101,711.229,274.152z"/>
	<path d="M742.979,281.352v-14.29h5.831v14.29c0,10.043-1.656,11.843-8.315,11.843s-8.314-1.8-8.314-11.843v-14.29h5.831v14.29
		c0,5.688,0.324,7.127,2.483,7.127C742.654,288.479,742.979,287.039,742.979,281.352z"/>
	<path d="M768.321,267.062v25.701h-5.724l-5.903-12.707v12.707h-5.723v-25.701h5.688l5.938,13.426v-13.426H768.321z"/>
	<path d="M787.33,274.152c0,4.536,8.207,4.248,8.207,11.735c0,4.319-0.648,7.307-7.271,7.307c-6.191,0-7.379-3.924-7.379-9.215
		h6.263c0,2.304,0,4.211,1.116,4.211c0.864,0,1.008-0.9,1.008-2.34c0-4.751-8.063-4.14-8.063-11.842
		c0-5.292,1.512-7.379,7.343-7.379c5.255,0,7.163,3.636,7.163,8.927h-6.264c0-3.131-0.144-3.923-1.044-3.923
		C787.617,271.633,787.33,272.101,787.33,274.152z"/>
	<path d="M803.601,267.062v25.701h-5.723v-25.701H803.601z"/>
	<path d="M812.205,274.152c0,4.536,8.207,4.248,8.207,11.735c0,4.319-0.648,7.307-7.271,7.307c-6.191,0-7.379-3.924-7.379-9.215
		h6.263c0,2.304,0,4.211,1.116,4.211c0.864,0,1.008-0.9,1.008-2.34c0-4.751-8.063-4.14-8.063-11.842
		c0-5.292,1.512-7.379,7.343-7.379c5.255,0,7.163,3.636,7.163,8.927h-6.264c0-3.131-0.144-3.923-1.044-3.923
		C812.492,271.633,812.205,272.101,812.205,274.152z"/>
	<path d="M832.543,292.762h-5.723v-20.697h-5.147v-5.003h16.018v5.003h-5.147V292.762z"/>
	<path d="M845.575,277.14h4.428v5.003h-4.428v5.615h6.228v5.003h-11.95v-25.701h11.95v5.003h-6.228V277.14z"/>
	<path d="M867.067,281.172l-1.872,11.59h-3.563l-1.944-11.59v11.59h-5.723v-25.701h6.083l3.348,13.462l3.312-13.462h6.083v25.701
		h-5.723V281.172z"/>
	<path d="M886.435,267.062l5.759,25.701h-5.723l-0.648-3.923h-4.499l-0.648,3.923h-5.723l5.759-25.701H886.435z M882.079,284.195
		h2.951l-1.476-9.035L882.079,284.195z"/>
	<path d="M920.272,279.48c0,10.331-1.403,13.282-8.711,13.282h-6.803v-25.701h6.803c7.308,0,8.711,2.952,8.711,13.282V279.48z
		 M914.55,280.344c0-8.351-0.576-8.639-4.068-8.639v16.414c3.492,0,4.068-0.288,4.068-8.639V280.344z"/>
	<path d="M928.157,277.14h4.428v5.003h-4.428v5.615h6.228v5.003h-11.95v-25.701h11.95v5.003h-6.228V277.14z"/>
	<path d="M964.912,267.062l-6.119,25.701h-5.724l-6.119-25.701h6.083l2.88,17.242l2.915-17.242H964.912z"/>
	<path d="M983.345,279.948c0,9.683-0.576,13.247-8.315,13.247c-7.738,0-8.314-3.564-8.314-13.247c0-9.359,0.576-13.318,8.314-13.318
		C982.769,266.629,983.345,270.589,983.345,279.948z M973.014,279.948c0,7.127,0.216,8.243,2.016,8.243s2.016-1.116,2.016-8.243
		c0-6.983-0.216-8.315-2.016-8.315S973.014,272.965,973.014,279.948z"/>
	<path d="M996.377,292.762h-5.723v-20.697h-5.147v-5.003h16.018v5.003h-5.147V292.762z"/>
	<path d="M1013.369,267.062l5.759,25.701h-5.723l-0.648-3.923h-4.499l-0.648,3.923h-5.723l5.759-25.701H1013.369z M1009.014,284.195
		h2.951l-1.476-9.035L1009.014,284.195z"/>
	<path d="M1031.585,284.267h6.263c0,5.292-2.268,8.927-7.883,8.927c-7.595,0-8.675-3.204-8.675-13.247
		c0-9.719,1.224-13.318,8.675-13.318c5.615,0,7.883,3.636,7.883,8.927h-6.263c0-2.304-0.324-3.923-1.908-3.923
		c-1.8,0-2.088,1.332-2.088,8.315c0,7.127,0.252,8.243,2.052,8.243C1031.225,288.191,1031.585,286.643,1031.585,284.267z"/>
	<path d="M1045.732,267.062v25.701h-5.723v-25.701H1045.732z"/>
	<path d="M1064.523,279.948c0,9.683-0.576,13.247-8.315,13.247c-7.738,0-8.314-3.564-8.314-13.247
		c0-9.359,0.576-13.318,8.314-13.318C1063.947,266.629,1064.523,270.589,1064.523,279.948z M1054.192,279.948
		c0,7.127,0.216,8.243,2.016,8.243s2.016-1.116,2.016-8.243c0-6.983-0.216-8.315-2.016-8.315S1054.192,272.965,1054.192,279.948z"/>
	<path d="M1084.035,267.062v25.701h-5.724l-5.903-12.707v12.707h-5.723v-25.701h5.688l5.938,13.426v-13.426H1084.035z"/>
	<path d="M1091.92,277.14h4.428v5.003h-4.428v5.615h6.228v5.003h-11.95v-25.701h11.95v5.003h-6.228V277.14z"/>
	<path d="M1106.753,274.152c0,4.536,8.207,4.248,8.207,11.735c0,4.319-0.648,7.307-7.271,7.307c-6.191,0-7.379-3.924-7.379-9.215
		h6.263c0,2.304,0,4.211,1.116,4.211c0.864,0,1.008-0.9,1.008-2.34c0-4.751-8.063-4.14-8.063-11.842
		c0-5.292,1.512-7.379,7.343-7.379c5.255,0,7.163,3.636,7.163,8.927h-6.264c0-3.131-0.144-3.923-1.044-3.923
		C1107.04,271.633,1106.753,272.101,1106.753,274.152z"/>
	<path d="M1133.967,292.762V281.28l-6.263-14.218h6.047l3.096,8.783l3.096-8.783h6.047l-6.263,14.218v11.482H1133.967z"/>
	<path d="M1164.277,277.14h4.428v5.003h-4.428v5.615h6.228v5.003h-11.95v-25.701h11.95v5.003h-6.228V277.14z"/>
	<path d="M1190.017,267.062v25.701h-5.724l-5.903-12.707v12.707h-5.723v-25.701h5.688l5.938,13.426v-13.426H1190.017z"/>
	<path d="M1202.474,284.267h6.263c0,5.292-2.268,8.927-7.883,8.927c-7.595,0-8.675-3.204-8.675-13.247
		c0-9.719,1.224-13.318,8.675-13.318c5.615,0,7.883,3.636,7.883,8.927h-6.263c0-2.304-0.324-3.923-1.908-3.923
		c-1.8,0-2.088,1.332-2.088,8.315c0,7.127,0.252,8.243,2.052,8.243C1202.113,288.191,1202.474,286.643,1202.474,284.267z"/>
	<path d="M1221.697,281.352v-14.29h5.831v14.29c0,10.043-1.656,11.843-8.315,11.843s-8.314-1.8-8.314-11.843v-14.29h5.831v14.29
		c0,5.688,0.324,7.127,2.483,7.127C1221.373,288.479,1221.697,287.039,1221.697,281.352z"/>
	<path d="M1235.413,277.14h4.428v5.003h-4.428v5.615h6.228v5.003h-11.95v-25.701h11.95v5.003h-6.228V277.14z"/>
	<path d="M1250.246,274.152c0,4.536,8.207,4.248,8.207,11.735c0,4.319-0.648,7.307-7.271,7.307c-6.191,0-7.379-3.924-7.379-9.215
		h6.263c0,2.304,0,4.211,1.116,4.211c0.864,0,1.008-0.9,1.008-2.34c0-4.751-8.063-4.14-8.063-11.842
		c0-5.292,1.512-7.379,7.343-7.379c5.255,0,7.163,3.636,7.163,8.927h-6.264c0-3.131-0.144-3.923-1.044-3.923
		C1250.533,271.633,1250.246,272.101,1250.246,274.152z"/>
	<path d="M1270.584,292.762h-5.723v-20.697h-5.147v-5.003h16.018v5.003h-5.147V292.762z"/>
	<path d="M1287.576,267.062l5.759,25.701h-5.723l-0.648-3.923h-4.499l-0.648,3.923h-5.723l5.759-25.701H1287.576z M1283.221,284.195
		h2.951l-1.476-9.035L1283.221,284.195z"/>
	<path d="M1301.94,274.152c0,4.536,8.207,4.248,8.207,11.735c0,4.319-0.648,7.307-7.271,7.307c-6.191,0-7.379-3.924-7.379-9.215
		h6.263c0,2.304,0,4.211,1.116,4.211c0.864,0,1.008-0.9,1.008-2.34c0-4.751-8.063-4.14-8.063-11.842
		c0-5.292,1.512-7.379,7.343-7.379c5.255,0,7.163,3.636,7.163,8.927h-6.264c0-3.131-0.144-3.923-1.044-3.923
		C1302.228,271.633,1301.94,272.101,1301.94,274.152z"/>
	<path d="M1339.521,279.948c0,9.683-0.576,13.247-8.315,13.247c-7.738,0-8.314-3.564-8.314-13.247
		c0-9.359,0.576-13.318,8.314-13.318C1338.945,266.629,1339.521,270.589,1339.521,279.948z M1329.19,279.948
		c0,7.127,0.216,8.243,2.016,8.243s2.016-1.116,2.016-8.243c0-6.983-0.216-8.315-2.016-8.315S1329.19,272.965,1329.19,279.948z"/>
	<path d="M1359.033,267.062v25.701h-5.724l-5.903-12.707v12.707h-5.723v-25.701h5.688l5.938,13.426v-13.426H1359.033z"/>
	<path d="M1366.918,287.759h5.867v5.003h-11.59v-25.701h5.723V287.759z"/>
	<path d="M1380.67,267.062v25.701h-5.723v-25.701H1380.67z"/>
	<path d="M1400.181,267.062v25.701h-5.724l-5.903-12.707v12.707h-5.723v-25.701h5.688l5.938,13.426v-13.426H1400.181z"/>
	<path d="M1408.065,277.14h4.428v5.003h-4.428v5.615h6.228v5.003h-11.95v-25.701h11.95v5.003h-6.228V277.14z"/>
	<path d="M1416.814,288.011h4.752v4.751h-4.752V288.011z"/>
	<path d="M696.396,379.162h-5.723v-25.701h5.723c6.731,0,9.071,3.167,9.071,8.927c0,5.399-2.34,8.531-9.071,8.531V379.162z
		 M696.396,366.384c2.772,0,3.348-1.08,3.348-3.959c0-2.88-0.575-4.319-3.348-4.319V366.384z"/>
	<path d="M716.951,353.461l5.759,25.701h-5.723l-0.648-3.923h-4.499l-0.648,3.923h-5.723l5.759-25.701H716.951z M712.596,370.595
		h2.951l-1.476-9.035L712.596,370.595z"/>
	<path d="M730.595,369.479v9.683h-5.723v-25.701h5.723c6.731,0,9.071,2.448,9.071,7.847c0,2.952-0.54,5.112-2.195,6.12
		c3.023,2.339,1.943,8.783,2.699,11.734h-5.724c-0.504-2.52,0.469-7.451-1.764-9.683H730.595z M730.595,365.664
		c2.772,0,3.348-0.72,3.348-3.599c0-2.88-0.575-3.959-3.348-3.959V365.664z"/>
	<path d="M751.114,379.162h-5.723v-20.697h-5.147v-5.003h16.018v5.003h-5.147V379.162z"/>
	<path d="M764.146,353.461v25.701h-5.723v-25.701H764.146z"/>
	<path d="M776.603,370.667h6.263c0,5.292-2.268,8.927-7.883,8.927c-7.595,0-8.675-3.204-8.675-13.247
		c0-9.719,1.224-13.318,8.675-13.318c5.615,0,7.883,3.636,7.883,8.927h-6.263c0-2.304-0.324-3.923-1.908-3.923
		c-1.8,0-2.088,1.332-2.088,8.315c0,7.127,0.252,8.243,2.052,8.243C776.242,374.591,776.603,373.043,776.603,370.667z"/>
	<path d="M790.75,353.461v25.701h-5.723v-25.701H790.75z"/>
	<path d="M798.634,379.162h-5.723v-25.701h5.723c6.731,0,9.071,3.167,9.071,8.927c0,5.399-2.34,8.531-9.071,8.531V379.162z
		 M798.634,366.384c2.772,0,3.348-1.08,3.348-3.959c0-2.88-0.575-4.319-3.348-4.319V366.384z"/>
	<path d="M819.189,353.461l5.759,25.701h-5.723l-0.648-3.923h-4.499l-0.648,3.923h-5.723l5.759-25.701H819.189z M814.834,370.595
		h2.951l-1.476-9.035L814.834,370.595z"/>
	<path d="M837.405,370.667h6.263c0,5.292-2.268,8.927-7.883,8.927c-7.595,0-8.675-3.204-8.675-13.247
		c0-9.719,1.224-13.318,8.675-13.318c5.615,0,7.883,3.636,7.883,8.927h-6.263c0-2.304-0.324-3.923-1.908-3.923
		c-1.8,0-2.088,1.332-2.088,8.315c0,7.127,0.252,8.243,2.052,8.243C837.045,374.591,837.405,373.043,837.405,370.667z"/>
	<path d="M851.553,353.461v25.701h-5.723v-25.701H851.553z"/>
	<path d="M870.344,366.348c0,9.683-0.576,13.247-8.315,13.247c-7.738,0-8.314-3.564-8.314-13.247c0-9.359,0.576-13.318,8.314-13.318
		C869.768,353.029,870.344,356.989,870.344,366.348z M860.013,366.348c0,7.127,0.216,8.243,2.016,8.243s2.016-1.116,2.016-8.243
		c0-6.983-0.216-8.315-2.016-8.315S860.013,359.365,860.013,366.348z"/>
	<path d="M889.855,353.461v25.701h-5.724l-5.903-12.707v12.707h-5.723v-25.701h5.688l5.938,13.426v-13.426H889.855z"/>
	<path d="M897.74,363.54h4.428v5.003h-4.428v5.615h6.228v5.003h-11.95v-25.701h11.95v5.003h-6.228V363.54z"/>
	<path d="M912.573,360.552c0,4.536,8.207,4.248,8.207,11.735c0,4.319-0.648,7.307-7.271,7.307c-6.191,0-7.379-3.924-7.379-9.215
		h6.263c0,2.304,0,4.211,1.116,4.211c0.864,0,1.008-0.9,1.008-2.34c0-4.751-8.063-4.14-8.063-11.842
		c0-5.292,1.512-7.379,7.343-7.379c5.255,0,7.163,3.636,7.163,8.927h-6.264c0-3.131-0.144-3.923-1.044-3.923
		C912.86,358.033,912.573,358.5,912.573,360.552z"/>
	<path d="M945.007,353.461l5.759,25.701h-5.723l-0.648-3.923h-4.499l-0.648,3.923h-5.723l5.759-25.701H945.007z M940.651,370.595
		h2.951l-1.476-9.035L940.651,370.595z"/>
	<path d="M970.277,353.461v25.701h-5.724l-5.903-12.707v12.707h-5.723v-25.701h5.688l5.938,13.426v-13.426H970.277z"/>
	<path d="M989.069,366.348c0,9.683-0.576,13.247-8.315,13.247c-7.738,0-8.314-3.564-8.314-13.247c0-9.359,0.576-13.318,8.314-13.318
		C988.493,353.029,989.069,356.989,989.069,366.348z M977.658,351.95l3.744-4.248h6.73l-5.111,4.248H977.658z M978.738,366.348
		c0,7.127,0.216,8.243,2.016,8.243s2.016-1.116,2.016-8.243c0-6.983-0.216-8.315-2.016-8.315S978.738,359.365,978.738,366.348z"/>
	<path d="M1008.581,353.461v25.701h-5.724l-5.903-12.707v12.707h-5.723v-25.701h5.688l5.938,13.426v-13.426H1008.581z"/>
	<path d="M1016.466,353.461v25.701h-5.723v-25.701H1016.466z"/>
	<path d="M1031.729,367.572l-1.872,11.59h-3.563l-1.944-11.59v11.59h-5.723v-25.701h6.083l3.348,13.462l3.312-13.462h6.083v25.701
		h-5.723V367.572z"/>
	<path d="M1051.097,353.461l5.759,25.701h-5.723l-0.648-3.923h-4.499l-0.648,3.923h-5.723l5.759-25.701H1051.097z M1046.741,370.595
		h2.951l-1.476-9.035L1046.741,370.595z"/>
	<path d="M1065.461,360.552c0,4.536,8.207,4.248,8.207,11.735c0,4.319-0.648,7.307-7.271,7.307c-6.191,0-7.379-3.924-7.379-9.215
		h6.263c0,2.304,0,4.211,1.116,4.211c0.864,0,1.008-0.9,1.008-2.34c0-4.751-8.063-4.14-8.063-11.842
		c0-5.292,1.512-7.379,7.343-7.379c5.255,0,7.163,3.636,7.163,8.927h-6.264c0-3.131-0.144-3.923-1.044-3.923
		C1065.748,358.033,1065.461,358.5,1065.461,360.552z"/>
	<path d="M1092.135,379.162h-5.723v-25.701h5.723c6.731,0,9.071,3.167,9.071,8.927c0,5.399-2.34,8.531-9.071,8.531V379.162z
		 M1092.135,366.384c2.772,0,3.348-1.08,3.348-3.959c0-2.88-0.575-4.319-3.348-4.319V366.384z"/>
	<path d="M1109.091,363.54h4.428v5.003h-4.428v5.615h6.228v5.003h-11.95v-25.701h11.95v5.003h-6.228V363.54z"/>
	<path d="M1123.203,369.479v9.683h-5.723v-25.701h5.723c6.731,0,9.071,2.448,9.071,7.847c0,2.952-0.54,5.112-2.195,6.12
		c3.023,2.339,1.943,8.783,2.699,11.734h-5.724c-0.504-2.52,0.469-7.451-1.764-9.683H1123.203z M1123.203,365.664
		c2.772,0,3.348-0.72,3.348-3.599c0-2.88-0.575-3.959-3.348-3.959V365.664z"/>
	<path d="M1150.311,366.348c0,9.683-0.576,13.247-8.315,13.247c-7.738,0-8.314-3.564-8.314-13.247
		c0-9.359,0.576-13.318,8.314-13.318C1149.734,353.029,1150.311,356.989,1150.311,366.348z M1139.979,366.348
		c0,7.127,0.216,8.243,2.016,8.243s2.016-1.116,2.016-8.243c0-6.983-0.216-8.315-2.016-8.315S1139.979,359.365,1139.979,366.348z"/>
	<path d="M1173.171,370.667h6.263c0,5.292-2.268,8.927-7.883,8.927c-7.595,0-8.675-3.204-8.675-13.247
		c0-9.719,1.224-13.318,8.675-13.318c5.615,0,7.883,3.636,7.883,8.927h-6.263c0-2.304-0.324-3.923-1.908-3.923
		c-1.8,0-2.088,1.332-2.088,8.315c0,7.127,0.252,8.243,2.052,8.243C1172.811,374.591,1173.171,373.043,1173.171,370.667z"/>
	<path d="M1198.226,366.348c0,9.683-0.576,13.247-8.315,13.247c-7.738,0-8.314-3.564-8.314-13.247
		c0-9.359,0.576-13.318,8.314-13.318C1197.649,353.029,1198.226,356.989,1198.226,366.348z M1187.895,366.348
		c0,7.127,0.216,8.243,2.016,8.243s2.016-1.116,2.016-8.243c0-6.983-0.216-8.315-2.016-8.315S1187.895,359.365,1187.895,366.348z"/>
	<path d="M1217.737,353.461v25.701h-5.724l-5.903-12.707v12.707h-5.723v-25.701h5.688l5.938,13.426v-13.426H1217.737z"/>
	<path d="M1230.77,379.162h-5.723v-20.697h-5.147v-5.003h16.018v5.003h-5.147V379.162z"/>
	<path d="M1243.802,369.479v9.683h-5.723v-25.701h5.723c6.731,0,9.071,2.448,9.071,7.847c0,2.952-0.54,5.112-2.195,6.12
		c3.023,2.339,1.943,8.783,2.699,11.734h-5.724c-0.504-2.52,0.469-7.451-1.764-9.683H1243.802z M1243.802,365.664
		c2.772,0,3.348-0.72,3.348-3.599c0-2.88-0.575-3.959-3.348-3.959V365.664z"/>
	<path d="M1270.908,366.348c0,9.683-0.576,13.247-8.315,13.247c-7.738,0-8.314-3.564-8.314-13.247
		c0-9.359,0.576-13.318,8.314-13.318C1270.332,353.029,1270.908,356.989,1270.908,366.348z M1260.577,366.348
		c0,7.127,0.216,8.243,2.016,8.243s2.016-1.116,2.016-8.243c0-6.983-0.216-8.315-2.016-8.315S1260.577,359.365,1260.577,366.348z"/>
	<path d="M1278.793,374.159h5.867v5.003h-11.59v-25.701h5.723V374.159z"/>
	<path d="M1298.305,353.461l5.759,25.701h-5.723l-0.648-3.923h-4.499l-0.648,3.923h-5.723l5.759-25.701H1298.305z M1293.949,370.595
		h2.951l-1.476-9.035L1293.949,370.595z"/>
	<path d="M1321.739,365.88c0,10.331-1.403,13.282-8.711,13.282h-6.803v-25.701h6.803c7.308,0,8.711,2.952,8.711,13.282V365.88z
		 M1316.017,366.744c0-8.351-0.576-8.639-4.068-8.639v16.414c3.492,0,4.068-0.288,4.068-8.639V366.744z"/>
	<path d="M1333.943,353.461l5.759,25.701h-5.723l-0.648-3.923h-4.499l-0.648,3.923h-5.723l5.759-25.701H1333.943z M1329.588,370.595
		h2.951l-1.476-9.035L1329.588,370.595z"/>
	<path d="M1348.309,360.552c0,4.536,8.207,4.248,8.207,11.735c0,4.319-0.648,7.307-7.271,7.307c-6.191,0-7.379-3.924-7.379-9.215
		h6.263c0,2.304,0,4.211,1.116,4.211c0.864,0,1.008-0.9,1.008-2.34c0-4.751-8.063-4.14-8.063-11.842
		c0-5.292,1.512-7.379,7.343-7.379c5.255,0,7.163,3.636,7.163,8.927h-6.264c0-3.131-0.144-3.923-1.044-3.923
		C1348.596,358.033,1348.309,358.5,1348.309,360.552z"/>
	<path d="M1359.215,374.411h4.752v4.751h-4.752V374.411z"/>
	<path d="M701.472,454.152v-14.291h5.831v14.291c0,10.043-1.656,11.842-8.315,11.842s-8.314-1.799-8.314-11.842v-14.291h5.831
		v14.291c0,5.688,0.324,7.127,2.483,7.127C701.147,461.279,701.472,459.84,701.472,454.152z"/>
	<path d="M726.814,439.861v25.701h-5.724l-5.903-12.707v12.707h-5.723v-25.701h5.688l5.938,13.427v-13.427H726.814z"/>
	<path d="M734.699,439.861v25.701h-5.723v-25.701H734.699z"/>
	<path d="M736.86,465.563v-25.701h11.95v5.004h-6.228v5.256h4.428v5.003h-4.428v10.438H736.86z"/>
	<path d="M756.695,439.861v25.701h-5.723v-25.701H756.695z"/>
	<path d="M769.151,457.067h6.263c0,5.292-2.268,8.927-7.883,8.927c-7.595,0-8.675-3.203-8.675-13.246
		c0-9.719,1.224-13.318,8.675-13.318c5.615,0,7.883,3.636,7.883,8.927h-6.263c0-2.304-0.324-3.923-1.908-3.923
		c-1.8,0-2.088,1.332-2.088,8.314c0,7.127,0.252,8.243,2.052,8.243C768.791,460.991,769.151,459.443,769.151,457.067z"/>
	<path d="M787.619,439.861l5.759,25.701h-5.723l-0.648-3.924h-4.499l-0.648,3.924h-5.723l5.759-25.701H787.619z M783.264,456.996
		h2.951l-1.476-9.035L783.264,456.996z"/>
	<path d="M816.813,465.563h-5.723v-20.697h-5.147v-5.004h16.018v5.004h-5.147V465.563z"/>
	<path d="M834.922,454.152v-14.291h5.831v14.291c0,10.043-1.656,11.842-8.315,11.842s-8.314-1.799-8.314-11.842v-14.291h5.831
		v14.291c0,5.688,0.324,7.127,2.483,7.127C834.598,461.279,834.922,459.84,834.922,454.152z"/>
	<path d="M849.358,446.953c0,4.535,8.207,4.247,8.207,11.734c0,4.319-0.648,7.307-7.271,7.307c-6.191,0-7.379-3.924-7.379-9.215
		h6.263c0,2.305,0,4.212,1.116,4.212c0.864,0,1.008-0.899,1.008-2.34c0-4.751-8.063-4.14-8.063-11.843
		c0-5.291,1.512-7.379,7.343-7.379c5.255,0,7.163,3.636,7.163,8.927h-6.264c0-3.132-0.144-3.923-1.044-3.923
		C849.646,444.434,849.358,444.9,849.358,446.953z"/>
	<path d="M888.271,439.861l-6.119,25.701h-5.724l-6.119-25.701h6.083l2.88,17.242l2.915-17.242H888.271z"/>
	<path d="M906.703,452.748c0,9.683-0.576,13.246-8.315,13.246c-7.738,0-8.314-3.563-8.314-13.246c0-9.359,0.576-13.318,8.314-13.318
		C906.127,439.43,906.703,443.389,906.703,452.748z M896.372,452.748c0,7.127,0.216,8.243,2.016,8.243s2.016-1.116,2.016-8.243
		c0-6.982-0.216-8.314-2.016-8.314S896.372,445.766,896.372,452.748z"/>
	<path d="M919.735,465.563h-5.723v-20.697h-5.147v-5.004h16.018v5.004h-5.147V465.563z"/>
	<path d="M936.729,439.861l5.759,25.701h-5.723l-0.648-3.924h-4.499l-0.648,3.924h-5.723l5.759-25.701H936.729z M932.373,456.996
		h2.951l-1.476-9.035L932.373,456.996z"/>
	<path d="M954.943,457.067h6.263c0,5.292-2.268,8.927-7.883,8.927c-7.595,0-8.675-3.203-8.675-13.246
		c0-9.719,1.224-13.318,8.675-13.318c5.615,0,7.883,3.636,7.883,8.927h-6.263c0-2.304-0.324-3.923-1.908-3.923
		c-1.8,0-2.088,1.332-2.088,8.314c0,7.127,0.252,8.243,2.052,8.243C954.583,460.991,954.943,459.443,954.943,457.067z"/>
	<path d="M969.092,439.861v25.701h-5.723v-25.701H969.092z"/>
	<path d="M987.882,452.748c0,9.683-0.576,13.246-8.315,13.246c-7.738,0-8.314-3.563-8.314-13.246c0-9.359,0.576-13.318,8.314-13.318
		C987.306,439.43,987.882,443.389,987.882,452.748z M977.551,452.748c0,7.127,0.216,8.243,2.016,8.243s2.016-1.116,2.016-8.243
		c0-6.982-0.216-8.314-2.016-8.314S977.551,445.766,977.551,452.748z"/>
	<path d="M1007.395,439.861v25.701h-5.724l-5.903-12.707v12.707h-5.723v-25.701h5.688l5.938,13.427v-13.427H1007.395z"/>
	<path d="M1015.279,449.94h4.428v5.003h-4.428v5.615h6.228v5.004h-11.95v-25.701h11.95v5.004h-6.228V449.94z"/>
	<path d="M1030.111,446.953c0,4.535,8.207,4.247,8.207,11.734c0,4.319-0.648,7.307-7.271,7.307c-6.191,0-7.379-3.924-7.379-9.215
		h6.263c0,2.305,0,4.212,1.116,4.212c0.864,0,1.008-0.899,1.008-2.34c0-4.751-8.063-4.14-8.063-11.843
		c0-5.291,1.512-7.379,7.343-7.379c5.255,0,7.163,3.636,7.163,8.927h-6.264c0-3.132-0.144-3.923-1.044-3.923
		C1030.398,444.434,1030.111,444.9,1030.111,446.953z"/>
	<path d="M1067.692,452.748c0,9.683-0.576,13.246-8.315,13.246c-7.738,0-8.314-3.563-8.314-13.246
		c0-9.359,0.576-13.318,8.314-13.318C1067.116,439.43,1067.692,443.389,1067.692,452.748z M1057.361,452.748
		c0,7.127,0.216,8.243,2.016,8.243s2.016-1.116,2.016-8.243c0-6.982-0.216-8.314-2.016-8.314S1057.361,445.766,1057.361,452.748z"/>
	<path d="M1087.205,439.861v25.701h-5.724l-5.903-12.707v12.707h-5.723v-25.701h5.688l5.938,13.427v-13.427H1087.205z"/>
	<path d="M1095.09,460.559h5.867v5.004h-11.59v-25.701h5.723V460.559z"/>
	<path d="M1108.842,439.861v25.701h-5.723v-25.701H1108.842z"/>
	<path d="M1128.352,439.861v25.701h-5.724l-5.903-12.707v12.707h-5.723v-25.701h5.688l5.938,13.427v-13.427H1128.352z"/>
	<path d="M1136.236,449.94h4.428v5.003h-4.428v5.615h6.228v5.004h-11.95v-25.701h11.95v5.004h-6.228V449.94z"/>
	<path d="M1161.292,465.563V454.08l-6.263-14.219h6.047l3.096,8.783l3.096-8.783h6.047l-6.263,14.219v11.482H1161.292z"/>
	<path d="M1202.511,452.748c0,9.683-0.576,13.246-8.315,13.246c-7.738,0-8.314-3.563-8.314-13.246
		c0-9.359,0.576-13.318,8.314-13.318C1201.935,439.43,1202.511,443.389,1202.511,452.748z M1192.18,452.748
		c0,7.127,0.216,8.243,2.016,8.243s2.016-1.116,2.016-8.243c0-6.982-0.216-8.314-2.016-8.314S1192.18,445.766,1192.18,452.748z"/>
	<path d="M1204.672,465.563v-25.701h5.723c6.731,0,9.071,1.729,9.071,7.127c0,2.952-0.54,4.752-2.195,5.76
		c1.655,1.08,2.915,1.943,2.915,5.867c0,6.012-3.491,6.947-9.791,6.947H1204.672z M1210.395,450.984c2.772,0,3.348-0.359,3.348-3.24
		c0-2.879-0.575-3.238-3.348-3.238V450.984z M1210.395,460.883c2.772,0,4.068-0.359,4.068-3.239s-1.296-3.239-4.068-3.239V460.883z"
		/>
	<path d="M1233.218,465.563h-5.723v-20.697h-5.147v-5.004h16.018v5.004h-5.147V465.563z"/>
	<path d="M1246.25,449.94h4.428v5.003h-4.428v5.615h6.228v5.004h-11.95v-25.701h11.95v5.004h-6.228V449.94z M1243.407,438.35
		l3.743-4.247h6.731l-5.111,4.247H1243.407z"/>
	<path d="M1271.99,439.861v25.701h-5.724l-5.903-12.707v12.707h-5.723v-25.701h5.688l5.938,13.427v-13.427H1271.99z"/>
	<path d="M1290.277,455.88v9.683h-5.723v-25.701h5.723c6.731,0,9.071,2.448,9.071,7.848c0,2.951-0.54,5.111-2.195,6.119
		c3.023,2.34,1.943,8.783,2.699,11.734h-5.724c-0.504-2.52,0.469-7.451-1.764-9.683H1290.277z M1290.277,452.064
		c2.772,0,3.348-0.721,3.348-3.6c0-2.88-0.575-3.959-3.348-3.959V452.064z"/>
	<path d="M1307.736,449.94h4.428v5.003h-4.428v5.615h6.228v5.004h-11.95v-25.701h11.95v5.004h-6.228V449.94z"/>
	<path d="M1322.57,446.953c0,4.535,8.207,4.247,8.207,11.734c0,4.319-0.648,7.307-7.271,7.307c-6.191,0-7.379-3.924-7.379-9.215
		h6.263c0,2.305,0,4.212,1.116,4.212c0.864,0,1.008-0.899,1.008-2.34c0-4.751-8.063-4.14-8.063-11.843
		c0-5.291,1.512-7.379,7.343-7.379c5.255,0,7.163,3.636,7.163,8.927h-6.264c0-3.132-0.144-3.923-1.044-3.923
		C1322.857,444.434,1322.57,444.9,1322.57,446.953z"/>
	<path d="M1343.916,454.152v-14.291h5.831v14.291c0,10.043-1.656,11.842-8.315,11.842s-8.314-1.799-8.314-11.842v-14.291h5.831
		v14.291c0,5.688,0.324,7.127,2.483,7.127C1343.592,461.279,1343.916,459.84,1343.916,454.152z"/>
	<path d="M1357.633,460.559h5.867v5.004h-11.59v-25.701h5.723V460.559z"/>
	<path d="M1374.012,465.563h-5.723v-20.697h-5.147v-5.004h16.018v5.004h-5.147V465.563z"/>
	<path d="M1391.005,439.861l5.759,25.701h-5.723l-0.648-3.924h-4.499l-0.648,3.924h-5.723l5.759-25.701H1391.005z M1386.649,456.996
		h2.951l-1.476-9.035L1386.649,456.996z"/>
	<path d="M1414.439,452.28c0,10.331-1.403,13.282-8.711,13.282h-6.803v-25.701h6.803c7.308,0,8.711,2.952,8.711,13.283V452.28z
		 M1408.717,453.145c0-8.352-0.576-8.639-4.068-8.639v16.413c3.492,0,4.068-0.288,4.068-8.639V453.145z"/>
	<path d="M1433.231,452.748c0,9.683-0.576,13.246-8.315,13.246c-7.738,0-8.314-3.563-8.314-13.246
		c0-9.359,0.576-13.318,8.314-13.318C1432.655,439.43,1433.231,443.389,1433.231,452.748z M1422.9,452.748
		c0,7.127,0.216,8.243,2.016,8.243s2.016-1.116,2.016-8.243c0-6.982-0.216-8.314-2.016-8.314S1422.9,445.766,1422.9,452.748z"/>
	<path d="M1441.837,446.953c0,4.535,8.207,4.247,8.207,11.734c0,4.319-0.648,7.307-7.271,7.307c-6.191,0-7.379-3.924-7.379-9.215
		h6.263c0,2.305,0,4.212,1.116,4.212c0.864,0,1.008-0.899,1.008-2.34c0-4.751-8.063-4.14-8.063-11.843
		c0-5.291,1.512-7.379,7.343-7.379c5.255,0,7.163,3.636,7.163,8.927h-6.264c0-3.132-0.144-3.923-1.044-3.923
		C1442.124,444.434,1441.837,444.9,1441.837,446.953z"/>
	<path d="M1473.083,457.067h6.263c0,5.292-2.268,8.927-7.883,8.927c-7.595,0-8.675-3.203-8.675-13.246
		c0-9.719,1.224-13.318,8.675-13.318c5.615,0,7.883,3.636,7.883,8.927h-6.263c0-2.304-0.324-3.923-1.908-3.923
		c-1.8,0-2.088,1.332-2.088,8.314c0,7.127,0.252,8.243,2.052,8.243C1472.723,460.991,1473.083,459.443,1473.083,457.067z"/>
	<path d="M1487.23,460.559h5.867v5.004h-11.59v-25.701h5.723V460.559z"/>
	<path d="M1506.742,439.861l5.759,25.701h-5.723l-0.648-3.924h-4.499l-0.648,3.924h-5.723l5.759-25.701H1506.742z M1502.387,456.996
		h2.951l-1.476-9.035L1502.387,456.996z"/>
	<path d="M1520.386,455.88v9.683h-5.723v-25.701h5.723c6.731,0,9.071,2.448,9.071,7.848c0,2.951-0.54,5.111-2.195,6.119
		c3.023,2.34,1.943,8.783,2.699,11.734h-5.724c-0.504-2.52,0.469-7.451-1.764-9.683H1520.386z M1520.386,452.064
		c2.772,0,3.348-0.721,3.348-3.6c0-2.88-0.575-3.959-3.348-3.959V452.064z"/>
	<path d="M1547.493,452.748c0,9.683-0.576,13.246-8.315,13.246c-7.738,0-8.314-3.563-8.314-13.246
		c0-9.359,0.576-13.318,8.314-13.318C1546.917,439.43,1547.493,443.389,1547.493,452.748z M1537.162,452.748
		c0,7.127,0.216,8.243,2.016,8.243s2.016-1.116,2.016-8.243c0-6.982-0.216-8.314-2.016-8.314S1537.162,445.766,1537.162,452.748z"/>
	<path d="M1556.099,446.953c0,4.535,8.207,4.247,8.207,11.734c0,4.319-0.648,7.307-7.271,7.307c-6.191,0-7.379-3.924-7.379-9.215
		h6.263c0,2.305,0,4.212,1.116,4.212c0.864,0,1.008-0.899,1.008-2.34c0-4.751-8.063-4.14-8.063-11.843
		c0-5.291,1.512-7.379,7.343-7.379c5.255,0,7.163,3.636,7.163,8.927h-6.264c0-3.132-0.144-3.923-1.044-3.923
		C1556.386,444.434,1556.099,444.9,1556.099,446.953z"/>
	<path d="M1567.006,460.811h4.752v4.752h-4.752V460.811z"/>
	<path d="M696.396,551.963h-5.723v-25.701h5.723c6.731,0,9.071,3.168,9.071,8.927c0,5.399-2.34,8.53-9.071,8.53V551.963z
		 M696.396,539.184c2.772,0,3.348-1.08,3.348-3.959c0-2.88-0.575-4.319-3.348-4.319V539.184z"/>
	<path d="M713.352,546.959h5.867v5.004h-11.59v-25.701h5.723V546.959z"/>
	<path d="M732.863,526.262l5.759,25.701h-5.723l-0.648-3.924h-4.499l-0.648,3.924h-5.723l5.759-25.701H732.863z M728.508,543.396
		h2.951l-1.476-9.034L728.508,543.396z"/>
	<path d="M758.134,526.262v25.701h-5.724l-5.903-12.707v12.707h-5.723v-25.701h5.688l5.938,13.426v-13.426H758.134z"/>
	<path d="M766.019,526.262v25.701h-5.723v-25.701H766.019z"/>
	<path d="M768.18,551.963v-25.701h11.95v5.004h-6.228v5.255h4.428v5.003h-4.428v10.439H768.18z"/>
	<path d="M788.015,526.262v25.701h-5.723v-25.701H788.015z"/>
	<path d="M800.471,543.467h6.263c0,5.292-2.268,8.928-7.883,8.928c-7.595,0-8.675-3.203-8.675-13.246
		c0-9.719,1.224-13.318,8.675-13.318c5.615,0,7.883,3.635,7.883,8.926h-6.263c0-2.303-0.324-3.923-1.908-3.923
		c-1.8,0-2.088,1.332-2.088,8.315c0,7.127,0.252,8.242,2.052,8.242C800.11,547.391,800.471,545.844,800.471,543.467z"/>
	<path d="M818.938,526.262l5.759,25.701h-5.723l-0.648-3.924h-4.499l-0.648,3.924h-5.723l5.759-25.701H818.938z M814.583,543.396
		h2.951l-1.476-9.034L814.583,543.396z"/>
	<path d="M842.985,546.959h5.868v5.004h-11.591v-25.701h5.723V546.959z"/>
	<path d="M862.497,526.262l5.759,25.701h-5.723l-0.648-3.924h-4.499l-0.648,3.924h-5.723l5.759-25.701H862.497z M858.142,543.396
		h2.951l-1.476-9.034L858.142,543.396z"/>
	<path d="M880.821,551.963v-25.701h11.95v5.004h-6.228v5.255h4.428v5.003h-4.428v10.439H880.821z"/>
	<path d="M900.656,536.34h4.428v5.004h-4.428v5.615h6.228v5.004h-11.95v-25.701h11.95v5.004h-6.228V536.34z"/>
	<path d="M919.341,543.467h6.263c0,5.292-2.268,8.928-7.883,8.928c-7.595,0-8.675-3.203-8.675-13.246
		c0-9.719,1.224-13.318,8.675-13.318c5.615,0,7.883,3.635,7.883,8.926h-6.263c0-2.303-0.324-3.923-1.908-3.923
		c-1.8,0-2.088,1.332-2.088,8.315c0,7.127,0.252,8.242,2.052,8.242C918.98,547.391,919.341,545.844,919.341,543.467z"/>
	<path d="M943.063,526.262v25.701h-5.724v-10.079h-3.852v10.079h-5.723v-25.701h5.723v10.619h3.852v-10.619H943.063z"/>
	<path d="M956.707,526.262l5.759,25.701h-5.723l-0.648-3.924h-4.499l-0.648,3.924h-5.723l5.759-25.701H956.707z M952.352,543.396
		h2.951l-1.476-9.034L952.352,543.396z"/>
	<path d="M990.545,538.68c0,10.331-1.403,13.283-8.711,13.283h-6.803v-25.701h6.803c7.308,0,8.711,2.951,8.711,13.282V538.68z
		 M984.822,539.544c0-8.351-0.576-8.639-4.068-8.639v16.413c3.492,0,4.068-0.287,4.068-8.639V539.544z"/>
	<path d="M998.43,536.34h4.428v5.004h-4.428v5.615h6.228v5.004h-11.95v-25.701h11.95v5.004h-6.228V536.34z"/>
	<path d="M1028.093,551.963h-5.723v-20.697h-5.147v-5.004h16.018v5.004h-5.147V551.963z"/>
	<path d="M1046.201,540.552v-14.29h5.831v14.29c0,10.043-1.656,11.843-8.315,11.843s-8.314-1.8-8.314-11.843v-14.29h5.831v14.29
		c0,5.688,0.324,7.127,2.483,7.127C1045.877,547.679,1046.201,546.239,1046.201,540.552z"/>
	<path d="M1060.638,533.353c0,4.536,8.207,4.247,8.207,11.735c0,4.318-0.648,7.307-7.271,7.307c-6.191,0-7.379-3.924-7.379-9.215
		h6.263c0,2.304,0,4.211,1.116,4.211c0.864,0,1.008-0.899,1.008-2.34c0-4.751-8.063-4.139-8.063-11.842
		c0-5.291,1.512-7.379,7.343-7.379c5.255,0,7.163,3.635,7.163,8.926h-6.264c0-3.131-0.144-3.923-1.044-3.923
		C1060.925,530.833,1060.638,531.301,1060.638,533.353z"/>
	<path d="M1099.551,526.262l-6.119,25.701h-5.724l-6.119-25.701h6.083l2.88,17.242l2.915-17.242H1099.551z"/>
	<path d="M1117.982,539.148c0,9.682-0.576,13.246-8.315,13.246c-7.738,0-8.314-3.564-8.314-13.246
		c0-9.359,0.576-13.318,8.314-13.318C1117.406,525.83,1117.982,529.789,1117.982,539.148z M1107.651,539.148
		c0,7.127,0.216,8.242,2.016,8.242s2.016-1.115,2.016-8.242c0-6.983-0.216-8.315-2.016-8.315S1107.651,532.165,1107.651,539.148z"/>
	<path d="M1131.015,551.963h-5.723v-20.697h-5.147v-5.004h16.018v5.004h-5.147V551.963z"/>
	<path d="M1148.008,526.262l5.759,25.701h-5.723l-0.648-3.924h-4.499l-0.648,3.924h-5.723l5.759-25.701H1148.008z M1143.652,543.396
		h2.951l-1.476-9.034L1143.652,543.396z"/>
	<path d="M1166.223,543.467h6.263c0,5.292-2.268,8.928-7.883,8.928c-7.595,0-8.675-3.203-8.675-13.246
		c0-9.719,1.224-13.318,8.675-13.318c5.615,0,7.883,3.635,7.883,8.926h-6.263c0-2.303-0.324-3.923-1.908-3.923
		c-1.8,0-2.088,1.332-2.088,8.315c0,7.127,0.252,8.242,2.052,8.242C1165.862,547.391,1166.223,545.844,1166.223,543.467z"/>
	<path d="M1180.371,526.262v25.701h-5.723v-25.701H1180.371z"/>
	<path d="M1199.161,539.148c0,9.682-0.576,13.246-8.315,13.246c-7.738,0-8.314-3.564-8.314-13.246
		c0-9.359,0.576-13.318,8.314-13.318C1198.585,525.83,1199.161,529.789,1199.161,539.148z M1188.83,539.148
		c0,7.127,0.216,8.242,2.016,8.242s2.016-1.115,2.016-8.242c0-6.983-0.216-8.315-2.016-8.315S1188.83,532.165,1188.83,539.148z"/>
	<path d="M1218.674,526.262v25.701h-5.724l-5.903-12.707v12.707h-5.723v-25.701h5.688l5.938,13.426v-13.426H1218.674z"/>
	<path d="M1226.559,536.34h4.428v5.004h-4.428v5.615h6.228v5.004h-11.95v-25.701h11.95v5.004h-6.228V536.34z"/>
	<path d="M1241.391,533.353c0,4.536,8.207,4.247,8.207,11.735c0,4.318-0.648,7.307-7.271,7.307c-6.191,0-7.379-3.924-7.379-9.215
		h6.263c0,2.304,0,4.211,1.116,4.211c0.864,0,1.008-0.899,1.008-2.34c0-4.751-8.063-4.139-8.063-11.842
		c0-5.291,1.512-7.379,7.343-7.379c5.255,0,7.163,3.635,7.163,8.926h-6.264c0-3.131-0.144-3.923-1.044-3.923
		C1241.678,530.833,1241.391,531.301,1241.391,533.353z"/>
	<path d="M1252.299,547.211h4.752v4.752h-4.752V547.211z"/>
</g>
<circle fill-rule="evenodd" clip-rule="evenodd" fill="#4C60A9" cx="651.5" cy="278" r="20"/>
<circle fill-rule="evenodd" clip-rule="evenodd" fill="#66B32E" cx="651.5" cy="450" r="20"/>
<circle fill-rule="evenodd" clip-rule="evenodd" fill="#E62332" cx="651.5" cy="363" r="20"/>
<circle fill-rule="evenodd" clip-rule="evenodd" fill="#FFD22B" cx="651.5" cy="537.001" r="20"/>
<g>
	<rect x="279.762" y="747.854" fill="none" width="1542.154" height="519.052"/>
	<text transform="matrix(0.83 0 0 0.73 622.96 797.5322)" font-family="'Adam'" font-size="72" letter-spacing="27.711">WYLFRUSKMIRCIUS</text>
</g>
</svg>
